<svg width="17" height="17" viewBox="0 0 17 17" fill="none" xmlns="http://www.w3.org/2000/svg">
<path d="M13.75 10H13V7C13 4.5145 10.9847 2.5 8.5 2.5C6.01525 2.5 4 4.5145 4 7V10H3.25C2.836 10 2.5 10.336 2.5 10.75C2.5 11.164 2.836 11.5 3.25 11.5H13.75C14.164 11.5 14.5 11.164 14.5 10.75C14.5 10.336 14.164 10 13.75 10ZM11.5 10H5.5V7C5.5 5.3455 6.8455 4 8.5 4C10.1545 4 11.5 5.3455 11.5 7V10Z" fill="currentColor"/>
<path d="M7 13C7 13.8288 7.672 14.5 8.5 14.5C9.328 14.5 10 13.8288 10 13V12.25H7V13Z" fill="currentColor"/>
</svg>
