<svg width="20" height="20" viewBox="0 0 20 20" fill="none" xmlns="http://www.w3.org/2000/svg">
<path d="M15.319 10.1755C15.7375 9.54025 15.9835 8.76925 15.9835 7.9375C15.9835 5.76325 14.3088 4 12.2418 4C10.4485 4 8.95225 5.32825 8.587 7.1005C8.32 7.03675 8.044 7 7.759 7C5.69275 7 4.01725 8.76325 4.01725 10.9375C4.01725 11.7692 4.26325 12.5395 4.68175 13.1755L4 16L7.6015 14.8668C7.654 14.869 7.70575 14.875 7.75825 14.875C9.5515 14.875 11.0478 13.5468 11.413 11.7745C11.68 11.8383 11.956 11.875 12.2418 11.875C12.295 11.875 12.3467 11.869 12.3985 11.8668L16 13L15.319 10.1755ZM9.994 11.0793C9.98125 11.317 9.93775 11.5458 9.8665 11.7603C9.8665 11.7618 9.86575 11.7625 9.86575 11.764C9.8425 11.8338 9.817 11.902 9.78775 11.968C9.78625 11.971 9.78475 11.9747 9.78325 11.9785C9.7555 12.0422 9.7255 12.1045 9.69325 12.1653C9.6895 12.1728 9.685 12.1795 9.6805 12.187C9.64975 12.2433 9.6175 12.298 9.58225 12.3505C9.574 12.3625 9.56575 12.3745 9.5575 12.3865C9.52525 12.4338 9.49225 12.4795 9.457 12.5245C9.44275 12.5418 9.4285 12.559 9.4135 12.5763C9.382 12.6138 9.35125 12.6505 9.31825 12.685C9.29575 12.709 9.271 12.7315 9.24775 12.7548C9.22075 12.781 9.1945 12.808 9.16675 12.8328C9.13075 12.8643 9.09325 12.8935 9.05575 12.9228C9.03775 12.937 9.0205 12.952 9.00175 12.9655C8.947 13.0053 8.89 13.0427 8.8315 13.0772C8.8285 13.0787 8.82625 13.081 8.82325 13.0825C8.569 13.2325 8.28475 13.3307 7.9825 13.3637C7.97875 13.3637 7.97425 13.3638 7.9705 13.3645C7.90825 13.3705 7.8445 13.3757 7.78 13.3765L7.77025 13.3758C7.7695 13.3758 7.7695 13.3758 7.76875 13.3758C7.7635 13.3758 7.7575 13.3765 7.75225 13.3765C7.67275 13.3765 7.59325 13.372 7.516 13.363L7.40575 13.3578L6.0835 13.774L6.14275 13.5287L6.29575 12.8958L6.0685 12.5508C5.7175 12.121 5.503 11.5577 5.503 10.939C5.503 9.59275 6.51025 8.5015 7.753 8.5015C7.7545 8.5015 7.756 8.5015 7.7575 8.5015C7.759 8.5015 7.75975 8.5015 7.76125 8.5015C7.8355 8.5015 7.909 8.506 7.981 8.51425C7.98775 8.515 7.99525 8.5165 8.00125 8.51725C8.06575 8.52475 8.1295 8.53525 8.19175 8.54875C8.2255 8.55625 8.25775 8.566 8.29075 8.57425C8.32375 8.5825 8.359 8.5915 8.39275 8.60275C8.434 8.61625 8.47375 8.632 8.51425 8.64775C8.53225 8.6545 8.551 8.6605 8.569 8.668C8.569 8.66875 8.569 8.66875 8.569 8.6695C9.4075 9.02425 10.0023 9.90475 10.0023 10.939C10.0023 10.987 9.99775 11.0335 9.9955 11.0807L9.994 11.0793ZM14.0665 9.3505L13.708 9.89425L13.9203 10.7725L12.598 10.3563L12.334 10.3675C12.2995 10.369 12.2658 10.3713 12.232 10.3735L12.2223 10.3742C11.944 10.3712 11.6793 10.3113 11.434 10.2078C11.2593 9.22525 10.7365 8.374 10.0075 7.795C10.0758 6.517 11.0508 5.49925 12.2425 5.49925C13.4785 5.49925 14.4843 6.59275 14.4843 7.93675C14.4843 8.446 14.3402 8.935 14.0665 9.3505Z" fill="currentColor"/>
</svg>
