<svg width="20" height="20" viewBox="0 0 20 20" fill="none" xmlns="http://www.w3.org/2000/svg">
<path d="M10.0111 5.5C11.9741 5.5 13.5713 7.18225 13.5713 9.25C13.5713 11.3177 11.9741 13 10.0211 13L9.97821 12.997C9.93892 12.994 9.89964 12.9918 9.86035 12.9895L9.62033 12.979L7.00229 13.8025L7.4516 11.9402L7.08229 11.38C6.66798 10.7508 6.44939 10.0135 6.44939 9.2485C6.44939 7.18075 8.04665 5.4985 10.0096 5.4985L10.0111 5.5ZM10.0111 4C7.25588 4 5.02214 6.3505 5.02214 9.25C5.02214 10.3592 5.35074 11.386 5.90864 12.2335L5 16L9.80177 14.4887C9.87178 14.4917 9.94035 14.5 10.0111 14.5C12.7663 14.5 15 12.1495 15 9.25C15 6.3505 12.7663 4 10.0111 4Z" fill="currentColor"/>
</svg>
