<svg width="17" height="17" viewBox="0 0 17 17" fill="none" xmlns="http://www.w3.org/2000/svg">
<path d="M11.1657 4.92857L10.0278 3.70929C9.90251 3.575 9.7332 3.5 9.55655 3.5H7.44212C7.26547 3.5 7.09549 3.575 6.97084 3.70929L5.83296 4.92857H3.16659C2.79863 4.92857 2.5 5.24857 2.5 5.64286V12.7857C2.5 13.18 2.79863 13.5 3.16659 13.5H4.49978C4.86774 13.5 5.16637 13.18 5.16637 12.7857C5.16637 12.3914 4.86774 12.0714 4.49978 12.0714H4.16648C3.9825 12.0714 3.83319 11.9114 3.83319 11.7143V6.71429C3.83319 6.51714 3.9825 6.35714 4.16648 6.35714H6.38557L7.71875 4.92857H9.28058L10.6138 6.35714H12.8329C13.0168 6.35714 13.1661 6.51714 13.1661 6.71429V11.7143C13.1661 11.9114 13.0168 12.0714 12.8329 12.0714H12.4996C12.1316 12.0714 11.833 12.3914 11.833 12.7857C11.833 13.1764 12.1256 13.4929 12.4896 13.4993V13.5H13.8334C14.2014 13.5 14.5 13.18 14.5 12.7857V5.64286C14.5 5.24857 14.2014 4.92857 13.8334 4.92857H11.1657Z" fill="currentColor"/>
<path d="M8.49933 8.5C9.23459 8.5 9.83252 9.14071 9.83252 9.92857C9.83252 10.7164 9.23459 11.3571 8.49933 11.3571C7.76408 11.3571 7.16615 10.7164 7.16615 9.92857C7.16615 9.14071 7.76408 8.5 8.49933 8.5ZM8.49933 7.07143C7.02683 7.07143 5.83296 8.35071 5.83296 9.92857C5.83296 11.5064 7.02683 12.7857 8.49933 12.7857C9.97184 12.7857 11.1657 11.5064 11.1657 9.92857C11.1657 8.35071 9.97184 7.07143 8.49933 7.07143Z" fill="currentColor"/>
</svg>
