<svg width="17" height="17" viewBox="0 0 17 17" fill="none" xmlns="http://www.w3.org/2000/svg">
<path d="M8.5 2.5C5.1865 2.5 2.5 5.1865 2.5 8.5C2.5 11.8135 5.1865 14.5 8.5 14.5C11.8135 14.5 14.5 11.8135 14.5 8.5C14.5 5.1865 11.8135 2.5 8.5 2.5ZM4 8.5C4 7.5295 4.312 6.63175 4.837 5.896L11.104 12.163C10.3683 12.688 9.4705 13 8.5 13C6.01825 13 4 10.9818 4 8.5ZM12.163 11.104L5.896 4.837C6.63175 4.312 7.5295 4 8.5 4C10.9818 4 13 6.01825 13 8.5C13 9.4705 12.688 10.3683 12.163 11.104Z" fill="currentColor"/>
</svg>
