<svg width="17" height="17" viewBox="0 0 17 17" fill="none" xmlns="http://www.w3.org/2000/svg">
<path d="M8.5 2.5C5.1865 2.5 2.5 5.1865 2.5 8.5C2.5 11.8135 5.1865 14.5 8.5 14.5C11.8135 14.5 14.5 11.8135 14.5 8.5C14.5 5.1865 11.8135 2.5 8.5 2.5ZM8.5 13C6.01825 13 4 10.981 4 8.5C4 6.019 6.01825 4 8.5 4C10.9818 4 13 6.019 13 8.5C13 10.981 10.9818 13 8.5 13Z" fill="currentColor"/>
<path d="M10.0075 8.5H8.875C8.668 8.5 8.5 8.332 8.5 8.125V6.9925C8.5 6.58225 8.16775 6.25 7.7575 6.25H7.7425C7.33225 6.25 7 6.58225 7 6.9925V9.2575C7 9.66775 7.33225 10 7.7425 10H10.0075C10.4178 10 10.75 9.66775 10.75 9.2575V9.2425C10.75 8.83225 10.4178 8.5 10.0075 8.5Z" fill="currentColor"/>
</svg>
