<svg width="17" height="17" viewBox="0 0 17 17" fill="none" xmlns="http://www.w3.org/2000/svg">
<path d="M13.8743 7.64532L12.8803 7.47956C12.7656 6.98678 12.5705 6.5255 12.3087 6.10998L12.8623 5.33518C13.0731 5.03966 13.0401 4.63463 12.7836 4.37812L12.623 4.21761C12.3665 3.96109 11.9614 3.92734 11.6658 4.13885L10.8908 4.69239C10.4745 4.43062 10.0139 4.23561 9.52101 4.12085L9.35521 3.12704C9.2952 2.76552 8.98162 2.5 8.61553 2.5H8.38597C8.01913 2.5 7.7063 2.76477 7.64629 3.12704L7.48049 4.12085C6.98762 4.23561 6.52701 4.43062 6.11065 4.69239L5.33571 4.13885C5.04013 3.92809 4.63503 3.96109 4.37847 4.21761L4.21793 4.37812C3.96137 4.63538 3.92761 5.03966 4.13916 5.33518L4.6928 6.10998C4.43098 6.52625 4.23593 6.98678 4.12116 7.47956L3.12716 7.64532C2.76557 7.70608 2.5 8.01884 2.5 8.38562V8.61513C2.5 8.98191 2.76482 9.29467 3.12641 9.35468L4.12041 9.52044C4.23518 10.0132 4.43023 10.4745 4.69205 10.89L4.13841 11.6648C3.92761 11.9603 3.96062 12.3654 4.21718 12.6219L4.37772 12.7824C4.63428 13.0389 5.03938 13.0727 5.33496 12.8611L6.1099 12.3076C6.52626 12.5694 6.98687 12.7644 7.47974 12.8791L7.64554 13.873C7.70555 14.2345 8.01913 14.5 8.38522 14.5H8.61478C8.98162 14.5 9.29445 14.2352 9.35446 13.873L9.52025 12.8791C10.0131 12.7644 10.4737 12.5694 10.8901 12.3076L11.665 12.8611C11.9606 13.0719 12.3657 13.0389 12.6223 12.7824L12.7828 12.6219C13.0394 12.3646 13.0731 11.9603 12.8616 11.6648L12.308 10.89C12.5698 10.4737 12.7648 10.0132 12.8796 9.52044L13.8736 9.35468C14.2352 9.29467 14.5 8.98116 14.5 8.61513V8.38562C14.5 8.01884 14.2352 7.70608 13.8736 7.64532H13.8743ZM8.49925 10.7498C7.25619 10.7498 6.24869 9.74245 6.24869 8.49963C6.24869 7.2568 7.25619 6.24948 8.49925 6.24948C9.74231 6.24948 10.7498 7.2568 10.7498 8.49963C10.7498 9.74245 9.74231 10.7498 8.49925 10.7498Z" fill="currentColor"/>
</svg>
