<svg width="17" height="17" viewBox="0 0 17 17" fill="none" xmlns="http://www.w3.org/2000/svg">
<path d="M8.5 2.5C5.1865 2.5 2.5 5.1865 2.5 8.5C2.5 11.8135 5.1865 14.5 8.5 14.5C11.8135 14.5 14.5 11.8135 14.5 8.5C14.5 5.1865 11.8135 2.5 8.5 2.5ZM8.5 13C6.01825 13 4 10.9818 4 8.5C4 6.01825 6.01825 4 8.5 4C10.9818 4 13 6.01825 13 8.5C13 10.9818 10.9818 13 8.5 13Z" fill="currentColor"/>
<path d="M10.5415 6.469L10.531 6.4585C10.2528 6.18025 9.80125 6.18025 9.523 6.4585L8.5 7.4815L7.477 6.4585C7.19875 6.18025 6.74725 6.18025 6.469 6.4585L6.4585 6.469C6.18025 6.74725 6.18025 7.19875 6.4585 7.477L7.4815 8.5L6.4585 9.523C6.18025 9.80125 6.18025 10.2528 6.4585 10.531L6.469 10.5415C6.74725 10.8198 7.19875 10.8198 7.477 10.5415L8.5 9.5185L9.523 10.5415C9.80125 10.8198 10.2528 10.8198 10.531 10.5415L10.5415 10.531C10.8198 10.2528 10.8198 9.80125 10.5415 9.523L9.5185 8.5L10.5415 7.477C10.8198 7.19875 10.8198 6.74725 10.5415 6.469Z" fill="currentColor"/>
</svg>
