<svg width="17" height="17" viewBox="0 0 17 17" fill="none" xmlns="http://www.w3.org/2000/svg">
<path d="M13.9918 7.46867C13.9808 7.21017 13.9574 6.94548 13.9299 6.67529C13.7381 4.80183 12.244 3.26525 10.3794 3.03287C8.3677 2.78193 6.60344 3.9947 5.98969 5.7499C5.91271 5.74303 5.83505 5.73822 5.75601 5.73822C4.24742 5.73822 3 6.96954 3 8.48137V9.16613C3 9.54082 3.32646 9.84539 3.69966 9.84539H3.7134C4.0866 9.84539 4.37182 9.52432 4.37182 9.15032V8.60994C4.29278 7.79386 4.95739 7.10704 5.75601 7.10704C5.79588 7.10704 5.83505 7.11048 5.87423 7.11392L6.40344 7.10704C6.71409 7.13317 7.00069 6.99773 7.10378 6.70348L7.25223 6.27928C7.61237 5.24871 8.52165 4.47595 9.60687 4.3797C11.2873 4.23051 12.7388 5.64746 12.6268 7.3243L12.6247 7.46799V9.22938H12.6316C12.6515 9.58757 12.9656 9.87358 13.3278 9.87358H13.3416C13.6983 9.87358 13.9704 9.5807 13.9952 9.22938H14V7.46799H13.9924L13.9918 7.46867Z" fill="currentColor"/>
<path d="M10.068 10.7728L9.1835 11.6783V9.18057C9.1835 8.8045 8.88041 8.49994 8.50653 8.49994H8.49278C8.1189 8.49994 7.81581 8.8045 7.81581 9.18057V11.5738L7.72715 11.5593L6.95876 10.7935C6.71615 10.5521 6.32783 10.493 6.05017 10.6931C5.69759 10.9468 5.66873 11.439 5.96289 11.7319L8.03986 13.7999C8.16838 13.9278 8.34227 14 8.5244 14C8.70653 14 8.88041 13.9278 9.00893 13.7999L11.0378 11.7374C11.3052 11.4713 11.3052 11.0396 11.0378 10.7728C10.7704 10.5061 10.3361 10.5061 10.0687 10.7728H10.068Z" fill="currentColor"/>
</svg>
