<svg width="17" height="17" viewBox="0 0 17 17" fill="none" xmlns="http://www.w3.org/2000/svg">
<path d="M13.75 2H3.25C2.836 2 2.5 2.48533 2.5 3.08333V13.9167C2.5 14.5147 2.836 15 3.25 15H13.75C14.164 15 14.5 14.5147 14.5 13.9167V3.08333C14.5 2.48533 14.164 2 13.75 2ZM12.7135 4.16667L8.5 8.31692L4.2865 4.16667H12.7135ZM13 12.2917C13 12.5907 12.832 12.8333 12.625 12.8333H4.375C4.168 12.8333 4 12.5907 4 12.2917V6.48175L8.12275 10.515C8.239 10.6157 8.3695 10.6656 8.5 10.6656C8.6305 10.6656 8.761 10.6157 8.87725 10.515L13 6.48175V12.2917Z" fill="currentColor"/>
</svg>
