<svg width="17" height="17" viewBox="0 0 17 17" fill="none" xmlns="http://www.w3.org/2000/svg">
<path d="M8.5 3.5C6.32467 3.5 4.15 5.16643 2.5 8.5C4.15 11.8329 6.32467 13.5 8.5 13.5C10.6753 13.5 12.85 11.8336 14.5 8.5C12.85 5.16714 10.6753 3.5 8.5 3.5ZM8.5 12.0714C6.918 12.0714 5.314 10.78 4.03133 8.5C5.314 6.22 6.91867 4.92857 8.5 4.92857C10.0813 4.92857 11.686 6.22 12.9687 8.5C11.686 10.78 10.0813 12.0714 8.5 12.0714Z" fill="currentColor"/>
<path d="M9.83333 8.5C9.83333 9.28929 9.236 9.92857 8.5 9.92857C7.764 9.92857 7.16667 9.28857 7.16667 8.5C7.16667 7.71143 7.764 7.07143 8.5 7.07143C9.236 7.07143 9.83333 7.71143 9.83333 8.5Z" fill="currentColor"/>
</svg>
