<svg width="17" height="17" viewBox="0 0 17 17" fill="none" xmlns="http://www.w3.org/2000/svg">
<path d="M13.8333 2H3.16667C2.79867 2 2.5 2.416 2.5 2.92857V14.0714C2.5 14.584 2.79867 15 3.16667 15H13.8333C14.2013 15 14.5 14.584 14.5 14.0714V2.92857C14.5 2.416 14.2013 2 13.8333 2ZM3.83333 3.85714H5.16667V5.71429H3.83333V3.85714ZM3.83333 7.57143H5.16667V9.42857H3.83333V7.57143ZM3.83333 13.1429V11.2857H5.16667V13.1429H3.83333ZM6.5 13.1429V3.85714H10.5V13.1429H6.5ZM13.1667 13.1429H11.8333V11.2857H13.1667V13.1429ZM13.1667 9.42857H11.8333V7.57143H13.1667V9.42857ZM13.1667 5.71429H11.8333V3.85714H13.1667V5.71429Z" fill="currentColor"/>
</svg>
