<svg width="17" height="17" viewBox="0 0 17 17" fill="none" xmlns="http://www.w3.org/2000/svg">
<path d="M14.2782 7.99204L9.78124 3.70945C9.4882 3.43018 9.01227 3.43018 8.71922 3.70945C8.42618 3.98872 8.42618 4.44155 8.71922 4.72153L11.9368 7.78562H3.25023C2.83577 7.78562 2.5 8.1056 2.5 8.49987C2.5 8.89413 2.83577 9.21411 3.25023 9.21411H11.9368L8.71997 12.2782C8.42692 12.5575 8.42692 13.0103 8.72072 13.2903C9.01452 13.5703 9.48969 13.5695 9.78274 13.2903L14.2797 9.00698C14.4265 8.86699 14.5 8.68343 14.5 8.49987C14.5 8.31631 14.4273 8.13275 14.2797 7.99275L14.2782 7.99204Z" fill="currentColor"/>
</svg>
