<svg width="17" height="17" viewBox="0 0 17 17" fill="none" xmlns="http://www.w3.org/2000/svg">
<path d="M14.2173 6.91944L9.006 3.12581C8.894 3.044 8.75933 3 8.62133 3H8.378C8.24 3 8.106 3.044 7.99333 3.12581L2.782 6.91944C2.60467 7.048 2.5 7.25769 2.5 7.48113V13.3125C2.5 13.692 2.79867 14 3.16667 14H13.8333C14.2013 14 14.5 13.692 14.5 13.3125V7.48113C14.5 7.25769 14.394 7.048 14.2173 6.91944ZM13.166 12.2812C13.166 12.471 13.0167 12.625 12.8327 12.625H7.83267V8.84375C7.83267 8.654 7.68333 8.5 7.49933 8.5H5.49933C5.31533 8.5 5.166 8.654 5.166 8.84375V12.625H4.166C3.982 12.625 3.83267 12.471 3.83267 12.2812V8.01531C3.83267 7.90325 3.88533 7.79875 3.97333 7.73413L8.49933 4.44031L13.0247 7.73413C13.1133 7.79875 13.166 7.90325 13.166 8.01531V12.2812Z" fill="currentColor"/>
<path d="M11.4993 8.5H9.49933C9.31533 8.5 9.166 8.654 9.166 8.84375V9.53125C9.166 9.721 9.31533 9.875 9.49933 9.875H11.4993C11.6833 9.875 11.8327 9.721 11.8327 9.53125V8.84375C11.8327 8.654 11.6833 8.5 11.4993 8.5Z" fill="currentColor"/>
</svg>
