<svg width="17" height="17" viewBox="0 0 17 17" fill="none" xmlns="http://www.w3.org/2000/svg">
<path d="M8.5 2.5C5.1865 2.5 2.5 5.1865 2.5 8.5C2.5 11.8135 5.1865 14.5 8.5 14.5C11.8135 14.5 14.5 11.8135 14.5 8.5C14.5 5.1865 11.8135 2.5 8.5 2.5ZM8.5 13C6.01825 13 4 10.9818 4 8.5C4 6.01825 6.01825 4 8.5 4C10.9818 4 13 6.01825 13 8.5C13 10.9818 10.9818 13 8.5 13Z" fill="currentColor"/>
<path d="M10.7575 7.7515H8.03275L9.0205 6.78175C9.3115 6.48775 9.3115 6.013 9.0205 5.719C8.7295 5.425 8.2585 5.42575 7.96825 5.719L5.71825 7.94425C5.57875 8.08525 5.5 8.27575 5.5 8.476C5.5 8.48425 5.5 8.49325 5.50075 8.5015C5.5015 8.50975 5.5 8.51875 5.5 8.527C5.5 8.7265 5.57875 8.91775 5.71825 9.05875L7.96825 11.284C8.25925 11.5772 8.73025 11.5772 9.0205 11.284C9.31075 10.9907 9.3115 10.5153 9.0205 10.2213L8.03275 9.25075H10.7575C11.1678 9.25075 11.5 8.9185 11.5 8.50825V8.49475C11.5 8.0845 11.1678 7.75225 10.7575 7.75225V7.7515Z" fill="currentColor"/>
</svg>
