<svg width="17" height="17" viewBox="0 0 17 17" fill="none" xmlns="http://www.w3.org/2000/svg">
<path d="M8.5 2.5C5.73857 2.50375 3.5 4.84 3.5 7.72225C3.5 11.866 7.08571 13.9525 8.14929 14.437C8.24143 14.479 8.34 14.5 8.43786 14.5C8.45857 14.5 8.47929 14.4955 8.5 14.4932C8.52071 14.4947 8.54143 14.5 8.56214 14.5C8.66 14.5 8.75857 14.479 8.85071 14.437C9.91429 13.9533 13.5 11.866 13.5 7.72225C13.5 4.84 11.2621 2.50375 8.5 2.5ZM8.56286 12.9213C8.54429 12.9108 8.52071 12.898 8.5 12.8875C8.47929 12.8988 8.45571 12.9115 8.43714 12.9213C7.52071 12.4353 4.92857 10.789 4.92857 7.72225C4.92857 5.67175 6.53 4.00375 8.5 4C10.47 4.00375 12.0714 5.67175 12.0714 7.72225C12.0714 10.789 9.47929 12.4353 8.56286 12.9213Z" fill="currentColor"/>
<path d="M8.5 6.25C7.71071 6.25 7.07143 6.922 7.07143 7.75C7.07143 8.578 7.71143 9.25 8.5 9.25C9.28857 9.25 9.92857 8.578 9.92857 7.75C9.92857 6.92125 9.28857 6.25 8.5 6.25Z" fill="currentColor"/>
</svg>
