<svg width="17" height="17" viewBox="0 0 17 17" fill="none" xmlns="http://www.w3.org/2000/svg">
<path d="M12.8393 5.60715C12.4401 5.60715 12.1161 5.93115 12.1161 6.33037V7.64951C12.1161 9.57326 10.6675 11.2562 8.74734 11.3849C6.64206 11.5259 4.88393 9.85314 4.88393 7.77679V6.33037C4.88393 5.93115 4.55993 5.60715 4.16071 5.60715C3.7615 5.60715 3.4375 5.93115 3.4375 6.33037V7.6336C3.4375 10.1974 5.2911 12.4249 7.77679 12.7872V13.5625C7.77679 13.9617 8.10079 14.2857 8.5 14.2857C8.89921 14.2857 9.22321 13.9617 9.22321 13.5625V12.7879C11.6764 12.4372 13.5625 10.3276 13.5625 7.77679V6.33037C13.5625 5.93115 13.2385 5.60715 12.8393 5.60715Z" fill="currentColor"/>
<path d="M8.5 2.71429C7.30163 2.71429 6.33036 3.68557 6.33036 4.88394V7.77679C6.33036 8.97516 7.30163 9.94644 8.5 9.94644C9.69837 9.94644 10.6696 8.97516 10.6696 7.77679V4.88394C10.6696 3.68557 9.69837 2.71429 8.5 2.71429ZM9.22321 7.77679C9.22321 8.17529 8.89849 8.50001 8.5 8.50001C8.10151 8.50001 7.77679 8.17529 7.77679 7.77679V4.88394C7.77679 4.48545 8.10079 4.16072 8.5 4.16072C8.89921 4.16072 9.22321 4.48545 9.22321 4.88394V7.77679Z" fill="currentColor"/>
</svg>
