<svg width="17" height="17" viewBox="0 0 17 17" fill="none" xmlns="http://www.w3.org/2000/svg">
<path d="M7.08454 3.83289C6.88022 4.50559 6.82243 5.22217 6.92336 5.94282C7.22129 8.07956 8.92176 9.78001 11.0585 10.0774C11.2881 10.1099 11.5209 10.1261 11.7504 10.1261C12.238 10.1261 12.7142 10.0554 13.1685 9.91732C12.6198 11.7169 11.0178 13.107 9.12038 13.3377C8.91362 13.3629 8.70523 13.3759 8.5001 13.3759C7.1057 13.3759 5.77398 12.7763 4.84845 11.7315C3.91071 10.6721 3.48987 9.30473 3.66244 7.88132C3.89362 5.98425 5.28395 4.38129 7.08454 3.83289ZM8.5001 2.00081C8.20543 2.00081 7.90506 2.02031 7.60143 2.06175C4.71739 2.45172 2.40153 4.79483 2.04988 7.68389C1.56799 11.6381 4.64169 15 8.5001 15C8.76872 15 9.04142 14.9838 9.31655 14.9496C12.2055 14.5978 14.549 12.2824 14.9389 9.39816C14.9813 9.087 15.0008 8.77989 15 8.47685C14.9983 8.00319 14.6076 7.68714 14.1892 7.68714C14.0191 7.68714 13.8441 7.73995 13.6894 7.85532C13.1481 8.25992 12.4774 8.49959 11.7496 8.49959C11.5966 8.49959 11.4403 8.48903 11.2824 8.4671C9.87252 8.27048 8.72884 7.12737 8.53266 5.71696C8.40649 4.81107 8.65395 3.96531 9.14398 3.30967C9.4818 2.77589 9.16433 2.00244 8.52208 2C8.51475 2 8.50743 2 8.49929 2L8.5001 2.00081Z" fill="currentColor"/>
</svg>
