<svg width="17" height="17" viewBox="0 0 17 17" fill="none" xmlns="http://www.w3.org/2000/svg">
<path d="M8.5 2.5C5.1865 2.5 2.5 5.1865 2.5 8.5C2.5 11.8135 5.1865 14.5 8.5 14.5C11.8135 14.5 14.5 11.8135 14.5 8.5C14.5 5.1865 11.8135 2.5 8.5 2.5ZM8.5 13C6.01825 13 4 10.9818 4 8.5C4 6.01825 6.01825 4 8.5 4C10.9818 4 13 6.01825 13 8.5C13 10.9818 10.9818 13 8.5 13Z" fill="currentColor"/>
<path d="M10.7575 7.75H9.25V6.2425C9.25 5.83225 8.91775 5.5 8.5075 5.5H8.4925C8.08225 5.5 7.75 5.83225 7.75 6.2425V7.75H6.2425C5.83225 7.75 5.5 8.08225 5.5 8.4925V8.5075C5.5 8.91775 5.83225 9.25 6.2425 9.25H7.75V10.7575C7.75 11.1678 8.08225 11.5 8.4925 11.5H8.5075C8.91775 11.5 9.25 11.1678 9.25 10.7575V9.25H10.7575C11.1678 9.25 11.5 8.91775 11.5 8.5075V8.4925C11.5 8.08225 11.1678 7.75 10.7575 7.75Z" fill="currentColor"/>
</svg>
