<svg width="17" height="17" viewBox="0 0 17 17" fill="none" xmlns="http://www.w3.org/2000/svg">
<path d="M7.75923 12.0753H7.14227C5.36192 11.7982 3.99964 10.3235 3.99964 8.55177C3.99964 7.95833 4.15951 7.40274 4.43046 6.90998L4.89056 7.517C5.22531 7.95833 5.94811 7.8355 6.10198 7.31061L6.97414 4.32625C7.09573 3.91205 6.76773 3.50143 6.31589 3.50214L3.18302 3.50643C2.62685 3.50714 2.30485 4.10701 2.6306 4.53692L3.47724 5.65382C2.86403 6.47151 2.5 7.47058 2.5 8.55249C2.5 11.0512 4.42596 13.1222 6.94186 13.4921C7.01017 13.5021 7.07697 13.4993 7.14227 13.4914V13.5H7.75923C8.16829 13.5 8.50004 13.1844 8.50004 12.7952V12.7809C8.50004 12.3917 8.16829 12.076 7.75923 12.076V12.0753Z" fill="currentColor"/>
<path d="M14.3695 12.4645L13.5221 11.3476C14.1361 10.5299 14.4993 9.53085 14.4993 8.44894C14.4993 5.95019 12.5734 3.8792 10.0575 3.50857C9.98917 3.49857 9.92237 3.50143 9.85707 3.50928V3.5H9.2401C8.83104 3.5 8.50004 3.81565 8.50004 4.20485V4.21913C8.50004 4.60905 8.8318 4.92469 9.2401 4.92469H9.85707C11.6374 5.20178 12.9997 6.67646 12.9997 8.44823C12.9997 9.04167 12.8398 9.59726 12.5696 10.09L12.1088 9.483C11.774 9.04167 11.0512 9.1645 10.8981 9.68939L10.0252 12.6737C9.90436 13.0887 10.2316 13.4986 10.6842 13.4979L13.8171 13.4936C14.374 13.4929 14.6952 12.8923 14.3695 12.4631V12.4645Z" fill="currentColor"/>
</svg>
