<svg width="17" height="17" viewBox="0 0 17 17" fill="none" xmlns="http://www.w3.org/2000/svg">
<path d="M9.43738 3.5C9.3538 3.5 9.26797 3.52286 9.1859 3.57214L6.13809 5.57929C6.0756 5.62071 6.00106 5.64286 5.92502 5.64286H3.24991C2.8358 5.64286 2.5 5.96286 2.5 6.35714V10.6429C2.5 11.0371 2.8358 11.3571 3.24991 11.3571H5.92502C6.00182 11.3571 6.0756 11.3793 6.13809 11.4207L9.1859 13.4279C9.26797 13.4771 9.3538 13.5 9.43738 13.5C9.73252 13.5 9.99981 13.2143 9.99981 12.8221V4.17857C9.99981 3.78571 9.73252 3.5 9.43738 3.5ZM8.49999 11.2386L6.70278 10.055C6.5778 9.97286 6.42872 9.92786 6.27663 9.92786H4.37552C4.16846 9.92786 4.00056 9.76786 4.00056 9.57071V7.42786C4.00056 7.23071 4.16846 7.07071 4.37552 7.07071H6.27663C6.42872 7.07071 6.5778 7.02643 6.70278 6.94357L8.49999 5.76V11.2386Z" fill="currentColor"/>
<path d="M14.497 8.35643C14.4322 7.10786 13.3571 6.22 12.6094 5.75C12.2555 5.52714 11.7857 5.66286 11.6118 6.04143L11.5832 6.10286C11.4416 6.41071 11.5493 6.77357 11.8362 6.95571C12.3677 7.29357 13.0303 7.84643 13.0589 8.43071C13.083 8.91357 12.6425 9.47929 11.8068 10.0521C11.5071 10.2579 11.4085 10.6514 11.5922 10.9629L11.6238 11.0164C11.8241 11.3557 12.2759 11.4621 12.6026 11.2393C13.9127 10.3457 14.5497 9.37857 14.497 8.35643Z" fill="currentColor"/>
</svg>
