<svg width="17" height="17" viewBox="0 0 17 17" fill="none" xmlns="http://www.w3.org/2000/svg">
<path d="M13.8333 6H11.1667V4.125C11.1667 3.78 10.868 3.5 10.5 3.5H6.5C6.132 3.5 5.83333 3.78 5.83333 4.125V6H3.16667C2.79867 6 2.5 6.28 2.5 6.625V7.25H3.83333V12.875C3.83333 13.22 4.132 13.5 4.5 13.5H12.5C12.868 13.5 13.1667 13.22 13.1667 12.875V7.25H14.5V6.625C14.5 6.28 14.2013 6 13.8333 6ZM7.16667 4.75H9.83333V6H7.16667V4.75ZM11.8333 12.25H5.16667V7.25H11.8333V12.25Z" fill="currentColor"/>
<path d="M6.83333 11H7.5C7.684 11 7.83333 10.86 7.83333 10.6875V8.8125C7.83333 8.64 7.684 8.5 7.5 8.5H6.83333C6.64933 8.5 6.5 8.64 6.5 8.8125V10.6875C6.5 10.86 6.64933 11 6.83333 11Z" fill="currentColor"/>
<path d="M9.5 11H10.1667C10.3507 11 10.5 10.86 10.5 10.6875V8.8125C10.5 8.64 10.3507 8.5 10.1667 8.5H9.5C9.316 8.5 9.16667 8.64 9.16667 8.8125V10.6875C9.16667 10.86 9.316 11 9.5 11Z" fill="currentColor"/>
</svg>
