<svg width="17" height="17" viewBox="0 0 17 17" fill="none" xmlns="http://www.w3.org/2000/svg">
<path d="M10.3 4.5H6.7C4.3804 4.5 2.5 6.29086 2.5 8.5C2.5 10.7091 4.3804 12.5 6.7 12.5H10.3C12.6196 12.5 14.5 10.7091 14.5 8.5C14.5 6.29086 12.6196 4.5 10.3 4.5ZM10.3 11.3571H6.7C5.0458 11.3571 3.7 10.0754 3.7 8.5C3.7 6.92457 5.0458 5.64286 6.7 5.64286H10.3C11.9542 5.64286 13.3 6.92457 13.3 8.5C13.3 10.0754 11.9542 11.3571 10.3 11.3571Z" fill="currentColor"/>
<path d="M8.5 8.5C8.5 9.44686 7.6942 10.2143 6.7 10.2143C5.7058 10.2143 4.9 9.44686 4.9 8.5C4.9 7.55314 5.7058 6.78571 6.7 6.78571C7.6942 6.78571 8.5 7.55314 8.5 8.5Z" fill="currentColor"/>
</svg>
