<svg width="17" height="17" viewBox="0 0 17 17" fill="none" xmlns="http://www.w3.org/2000/svg">
<path d="M12.7857 2.5H4.92857C4.13929 2.5 3.5 3.17125 3.5 4V13C3.5 13.8288 4.14 14.5 4.92857 14.5H12.7857C13.18 14.5 13.5 14.164 13.5 13.75V3.25C13.5 2.836 13.18 2.5 12.7857 2.5ZM12.0714 12.625C12.0714 12.832 11.9114 13 11.7143 13H5.63571C5.245 13 4.92857 12.6678 4.92857 12.2575V12.2425C4.92857 11.8322 5.245 11.5 5.63571 11.5H11.7143C11.9114 11.5 12.0714 11.668 12.0714 11.875V12.625ZM12.0714 9.64825C12.0714 9.85525 11.9114 10.0233 11.7143 10.0233H6.71429C6.51714 10.0233 6.35714 9.85525 6.35714 9.64825V4.375C6.35714 4.168 6.51714 4 6.71429 4H11.7143C11.9114 4 12.0714 4.168 12.0714 4.375V9.64825Z" fill="currentColor"/>
<path d="M10.2857 5.5H8.14286C7.94571 5.5 7.78571 5.668 7.78571 5.875V6.625C7.78571 6.832 7.94571 7 8.14286 7H10.2857C10.4829 7 10.6429 6.832 10.6429 6.625V5.875C10.6429 5.668 10.4829 5.5 10.2857 5.5Z" fill="currentColor"/>
</svg>
