<svg width="17" height="17" viewBox="0 0 17 17" fill="none" xmlns="http://www.w3.org/2000/svg">
<path d="M13.8333 3.5C13.4653 3.5 13.1667 3.82 13.1667 4.21429V7.29857L7.16667 3.5C6.79867 3.5 6.5 3.82 6.5 4.21429V5.61L3.16667 3.5C2.79867 3.5 2.5 3.82 2.5 4.21429V12.7857C2.5 13.18 2.79867 13.5 3.16667 13.5L6.5 11.3893V12.7857C6.5 13.18 6.79867 13.5 7.16667 13.5L13.1667 9.70143V12.7857C13.1667 13.18 13.4653 13.5 13.8333 13.5C14.2013 13.5 14.5 13.18 14.5 12.7857V4.21429C14.5 3.82 14.2013 3.5 13.8333 3.5ZM6.5 9.73L3.83333 11.4186V5.58143L6.5 7.27V9.73ZM7.83333 11.4186V5.58143L12.4433 8.5L7.83333 11.4186Z" fill="currentColor"/>
</svg>
