<svg width="17" height="17" viewBox="0 0 17 17" fill="none" xmlns="http://www.w3.org/2000/svg">
<path d="M13.834 5.58275C13.7567 5.58275 13.6773 5.59558 13.5993 5.62417L10.5 6.74008V5.58333C10.5 5.26133 10.2013 5 9.83333 5H3.16667C2.79867 5 2.5 5.26133 2.5 5.58333V11.4167C2.5 11.7387 2.79867 12 3.16667 12H9.83333C10.2013 12 10.5 11.7387 10.5 11.4167V10.2599L13.5993 11.3758C13.6773 11.4038 13.7567 11.4172 13.834 11.4172C14.1873 11.4172 14.5 11.1431 14.5 10.7767V6.22442C14.5 5.85808 14.1873 5.58392 13.834 5.58392V5.58275ZM9.16667 10.5411C9.16667 10.7021 9.01733 10.8328 8.83333 10.8328H4.16667C3.98267 10.8328 3.83333 10.7021 3.83333 10.5411V6.45775C3.83333 6.29675 3.98267 6.16608 4.16667 6.16608H8.83333C9.01733 6.16608 9.16667 6.29675 9.16667 6.45775V10.5411ZM13.1667 9.95775L10.5 8.99758V8.00125L13.1667 7.04108V9.95717V9.95775Z" fill="currentColor"/>
</svg>
