<svg width="17" height="17" viewBox="0 0 17 17" fill="none" xmlns="http://www.w3.org/2000/svg">
<path d="M6.223 4.92857L7.174 5.83429C7.528 6.17143 7.999 6.35714 8.5 6.35714H13V12.0714H4V4.92857H6.223ZM6.6895 3.5H3.25C2.836 3.5 2.5 3.82 2.5 4.21429V12.7857C2.5 13.18 2.836 13.5 3.25 13.5H13.75C14.164 13.5 14.5 13.18 14.5 12.7857V5.64286C14.5 5.24857 14.164 4.92857 13.75 4.92857H8.5C8.40025 4.92857 8.305 4.89071 8.23525 4.82429L6.955 3.605C6.8845 3.53786 6.78925 3.5 6.6895 3.5Z" fill="currentColor"/>
</svg>
