<svg width="17" height="17" viewBox="0 0 17 17" fill="none" xmlns="http://www.w3.org/2000/svg">
<path d="M10 5.5C11.722 5.5 13.1103 6.95875 12.9933 8.7055C12.8868 10.2985 11.491 11.5 9.89425 11.5H5.56675C4.78375 11.5 4.08325 10.9292 4.0075 10.15C3.9205 9.256 4.62325 8.5 5.5 8.5C5.54425 8.5 5.587 8.50375 5.62975 8.5075L6.20875 8.557C6.54925 8.58625 6.8665 8.38075 6.97975 8.0575L7.17175 7.50925C7.59325 6.30775 8.7295 5.5 10 5.5ZM10 4C8.0365 4 6.3715 5.25925 5.7565 7.01275C5.67175 7.00525 5.58625 7 5.5 7C3.84325 7 2.5 8.34325 2.5 10C2.5 11.6568 3.84325 13 5.5 13H10C12.4847 13 14.5 10.9855 14.5 8.5C14.5 6.0145 12.4847 4 10 4Z" fill="currentColor"/>
</svg>
