<svg width="17" height="17" viewBox="0 0 17 17" fill="none" xmlns="http://www.w3.org/2000/svg">
<path d="M11.5556 4.125C11.5556 3.78 11.2818 3.5 10.9444 3.5H6.05556C5.71822 3.5 5.44444 3.78 5.44444 4.125L3 8.5V12.875C3 13.22 3.27378 13.5 3.61111 13.5H13.3889C13.7262 13.5 14 13.22 14 12.875V8.5L11.5556 4.125ZM6.50289 4.75H10.4965L12.2424 7.875H10.0272C9.8585 7.875 9.72161 8.015 9.72161 8.1875V8.44438C9.72161 9.09688 9.25656 9.68062 8.62161 9.74375C7.89317 9.81625 7.27717 9.23 7.27717 8.5V8.1875C7.27717 8.015 7.14028 7.875 6.97161 7.875H4.75633L6.50289 4.75ZM12.7778 11.9375C12.7778 12.11 12.6409 12.25 12.4722 12.25H4.52778C4.35911 12.25 4.22222 12.11 4.22222 11.9375V9.125H6.13561C6.40756 10.2025 7.3615 11 8.5 11C9.6385 11 10.5924 10.2025 10.8644 9.125H12.7778V11.9375Z" fill="currentColor"/>
</svg>
