<svg width="17" height="17" viewBox="0 0 17 17" fill="none" xmlns="http://www.w3.org/2000/svg">
<path d="M13.8333 4.75H11.1667V4.125C11.1667 3.78 10.868 3.5 10.5 3.5H6.5C6.132 3.5 5.83333 3.78 5.83333 4.125V4.75H3.16667C2.79867 4.75 2.5 5.03 2.5 5.375V10.375C2.5 10.72 2.79867 11 3.16667 11H4.5V12.875C4.5 13.22 4.79867 13.5 5.16667 13.5H11.8333C12.2013 13.5 12.5 13.22 12.5 12.875V11H13.8333C14.2013 11 14.5 10.72 14.5 10.375V5.375C14.5 5.03 14.2013 4.75 13.8333 4.75ZM11.1667 12.25H5.83333V9.75H11.1667V12.25ZM13.1667 9.4375C13.1667 9.61 13.0173 9.75 12.8333 9.75H12.5V9.125C12.5 8.78 12.2013 8.5 11.8333 8.5H5.16667C4.79867 8.5 4.5 8.78 4.5 9.125V9.75H4.16667C3.98267 9.75 3.83333 9.61 3.83333 9.4375V6.3125C3.83333 6.14 3.98267 6 4.16667 6H12.8333C13.0173 6 13.1667 6.14 13.1667 6.3125V9.4375Z" fill="currentColor"/>
</svg>
