<svg width="17" height="17" viewBox="0 0 17 17" fill="none" xmlns="http://www.w3.org/2000/svg">
<path d="M10.213 6.78643L6.80073 6.78815C6.79558 6.78815 6.79044 6.78643 6.78444 6.78643H5.40889L8.25345 3.94153C8.58105 3.61409 8.58105 3.08437 8.25345 2.75693L8.24145 2.74493C7.91471 2.41836 7.38388 2.41836 7.05714 2.74493L2.84218 6.96044C2.81217 6.98272 2.78215 7.00415 2.75557 7.03158L2.75128 7.03587C2.75042 7.03672 2.74956 7.03758 2.74871 7.0393L2.74442 7.04358C2.71526 7.07272 2.69211 7.10444 2.66895 7.13701C2.66123 7.14644 2.6518 7.15501 2.6458 7.1653C2.54803 7.30844 2.49915 7.47387 2.50001 7.64016C2.50001 7.64188 2.50001 7.64273 2.50001 7.64445C2.50001 7.64616 2.50001 7.64702 2.50001 7.64788C2.49915 7.81417 2.54803 7.9796 2.6458 8.12274C2.65266 8.13303 2.66123 8.14074 2.66809 8.15103C2.69211 8.18274 2.71612 8.21532 2.74442 8.24446L2.74871 8.24875C2.74956 8.2496 2.75042 8.25046 2.75128 8.25132L2.75557 8.2556C2.78215 8.28303 2.81217 8.30446 2.84218 8.32675L7.05714 12.5423C7.38388 12.8688 7.91471 12.8688 8.24145 12.5423L8.25345 12.5303C8.58105 12.2037 8.58105 11.6731 8.25345 11.3457L5.40889 8.50075H6.78444C6.79044 8.50075 6.79558 8.49904 6.80073 8.49904V8.50075H10.213C11.6314 8.50075 12.7849 9.65449 12.7849 11.0731V13.6428C12.7849 14.1169 13.1691 14.5 13.6424 14.5C14.1158 14.5 14.5 14.116 14.5 13.6428V11.0731C14.5 8.70561 12.5808 6.78643 10.213 6.78643Z" fill="currentColor"/>
</svg>
