<svg width="17" height="17" viewBox="0 0 17 17" fill="none" xmlns="http://www.w3.org/2000/svg">
<path d="M14.2752 8.1325L8.88494 2.7265C8.7408 2.58175 8.54411 2.5 8.33991 2.5H3.27025C2.84533 2.5 2.5 2.84425 2.5 3.27025V8.33425C2.5 8.53825 2.58108 8.73475 2.72597 8.87875L8.12745 14.275C8.2776 14.425 8.47504 14.5 8.67173 14.5C8.86842 14.5 9.06586 14.425 9.21601 14.275L14.2744 9.22075C14.5747 8.92075 14.5754 8.43325 14.2752 8.1325ZM12.4329 8.94025L8.93599 12.4337C8.78959 12.58 8.55236 12.58 8.40597 12.4337L3.99995 8.032V4.37575C3.99995 4.16875 4.16812 4.00075 4.37457 4.00075H8.03586L12.4321 8.41075C12.5785 8.557 12.5778 8.79475 12.4321 8.941L12.4329 8.94025Z" fill="currentColor"/>
<path d="M7.75059 6.625C7.75059 7.246 7.24685 7.75 6.62525 7.75C6.00364 7.75 5.49991 7.246 5.49991 6.625C5.49991 6.004 6.00364 5.5 6.62525 5.5C7.24685 5.5 7.75059 6.004 7.75059 6.625Z" fill="currentColor"/>
</svg>
