<svg width="17" height="17" viewBox="0 0 17 17" fill="none" xmlns="http://www.w3.org/2000/svg">
<path d="M12.25 2.5H4.75C4.336 2.5 4 2.836 4 3.25V13.7492C4 14.1902 4.36225 14.5 4.75225 14.5C4.89175 14.5 5.035 14.4602 5.16625 14.3732L8.2555 11.7115C8.3965 11.59 8.60425 11.59 8.7445 11.7115L11.8337 14.3732C11.965 14.461 12.1082 14.5 12.2477 14.5C12.6377 14.5 13 14.1895 13 13.7492V3.25C13 2.836 12.664 2.5 12.25 2.5ZM11.5 12.1053L8.7445 9.73075C8.6035 9.60925 8.39575 9.60925 8.2555 9.73075L5.5 12.1053V4.375C5.5 4.168 5.668 4 5.875 4H11.125C11.332 4 11.5 4.168 11.5 4.375V12.1053Z" fill="currentColor"/>
</svg>
