<svg width="17" height="17" viewBox="0 0 17 17" fill="none" xmlns="http://www.w3.org/2000/svg">
<path d="M8.5 2.5C5.1865 2.5 2.5 5.1865 2.5 8.5C2.5 11.8135 5.1865 14.5 8.5 14.5C11.8135 14.5 14.5 11.8135 14.5 8.5C14.5 5.1865 11.8135 2.5 8.5 2.5ZM8.5 4C9.4705 4 10.3675 4.312 11.1032 4.83625L10.0218 5.91775C9.5755 5.65375 9.05575 5.5 8.5 5.5C7.94425 5.5 7.4245 5.6545 6.97825 5.91775L5.89675 4.83625C6.63175 4.312 7.5295 4 8.5 4ZM10 8.5C10 8.5795 9.99025 8.656 9.97675 8.73175C9.877 9.373 9.373 9.877 8.73175 9.97675C8.656 9.99025 8.5795 10 8.5 10C8.4205 10 8.344 9.99025 8.26825 9.97675C7.627 9.877 7.123 9.373 7.02325 8.73175C7.009 8.656 7 8.5795 7 8.5C7 8.4205 7.00975 8.344 7.02325 8.26825C7.123 7.627 7.627 7.123 8.26825 7.02325C8.344 7.00975 8.4205 7 8.5 7C8.5795 7 8.656 7.00975 8.73175 7.02325C9.373 7.123 9.877 7.627 9.97675 8.26825C9.991 8.344 10 8.4205 10 8.5ZM4 8.5C4 7.5295 4.312 6.6325 4.83625 5.89675L5.91775 6.97825C5.65375 7.4245 5.5 7.9435 5.5 8.5C5.5 9.0565 5.65375 9.5755 5.91775 10.0218L4.83625 11.1032C4.312 10.3675 4 9.4705 4 8.5ZM8.5 13C7.5295 13 6.6325 12.688 5.89675 12.1638L6.97825 11.0822C7.4245 11.3462 7.94425 11.5 8.5 11.5C9.05575 11.5 9.5755 11.3455 10.0218 11.0822L11.1032 12.1638C10.3682 12.688 9.4705 13 8.5 13ZM12.1638 11.1032L11.0822 10.0218C11.3462 9.5755 11.5 9.0565 11.5 8.5C11.5 7.9435 11.3462 7.4245 11.0822 6.97825L12.1638 5.89675C12.688 6.6325 13 7.5295 13 8.5C13 9.4705 12.688 10.3675 12.1638 11.1032Z" fill="currentColor"/>
</svg>
