<svg width="17" height="17" viewBox="0 0 17 17" fill="none" xmlns="http://www.w3.org/2000/svg">
<path d="M4 13V2.5H2.5V13.75C2.5 14.164 2.836 14.5 3.25 14.5H14.5V13H4Z" fill="currentColor"/>
<path d="M5.875 11.5H6.625C6.832 11.5 7 11.332 7 11.125V7.375C7 7.168 6.832 7 6.625 7H5.875C5.668 7 5.5 7.168 5.5 7.375V11.125C5.5 11.332 5.668 11.5 5.875 11.5Z" fill="currentColor"/>
<path d="M8.125 11.5H8.875C9.082 11.5 9.25 11.332 9.25 11.125V4.375C9.25 4.168 9.082 4 8.875 4H8.125C7.918 4 7.75 4.168 7.75 4.375V11.125C7.75 11.332 7.918 11.5 8.125 11.5Z" fill="currentColor"/>
<path d="M10.375 11.5H11.125C11.332 11.5 11.5 11.332 11.5 11.125V8.875C11.5 8.668 11.332 8.5 11.125 8.5H10.375C10.168 8.5 10 8.668 10 8.875V11.125C10 11.332 10.168 11.5 10.375 11.5Z" fill="currentColor"/>
<path d="M12.625 11.5H13.375C13.582 11.5 13.75 11.332 13.75 11.125V5.875C13.75 5.668 13.582 5.5 13.375 5.5H12.625C12.418 5.5 12.25 5.668 12.25 5.875V11.125C12.25 11.332 12.418 11.5 12.625 11.5Z" fill="currentColor"/>
</svg>
