<svg width="16" height="16" viewBox="0 0 16 16" fill="none" xmlns="http://www.w3.org/2000/svg">
<path d="M9.875 9.5H8.75V6.875C8.75 6.668 8.582 6.5 8.375 6.5H6.125C5.918 6.5 5.75 6.668 5.75 6.875V7.625C5.75 7.832 5.918 8 6.125 8H7.25V9.5H6.125C5.918 9.5 5.75 9.668 5.75 9.875V10.625C5.75 10.832 5.918 11 6.125 11H9.875C10.082 11 10.25 10.832 10.25 10.625V9.875C10.25 9.668 10.082 9.5 9.875 9.5ZM13.25 2H2.75C2.336 2 2 2.336 2 2.75V13.25C2 13.664 2.336 14 2.75 14H13.25C13.664 14 14 13.664 14 13.25V2.75C14 2.336 13.664 2 13.25 2ZM12.5 12.125C12.5 12.332 12.332 12.5 12.125 12.5H3.875C3.668 12.5 3.5 12.332 3.5 12.125V5.375C3.5 5.168 3.668 5 3.875 5H12.125C12.332 5 12.5 5.168 12.5 5.375V12.125Z" fill="currentColor"/>
</svg>
