<svg width="17" height="17" viewBox="0 0 17 17" fill="none" xmlns="http://www.w3.org/2000/svg">
<path d="M12.0368 7.4905C12.1734 7.10125 12.2506 6.68575 12.2506 6.25C12.2506 4.17925 10.572 2.5 8.50037 2.5C6.42875 2.5 4.75014 4.17925 4.75014 6.25C4.75014 6.68575 4.82815 7.10125 4.96465 7.4905C3.50356 8.23375 2.5 9.748 2.5 11.4992V13.7492C2.5 14.164 2.83602 14.5 3.2508 14.5H13.7492C14.164 14.5 14.5 14.164 14.5 13.7492V11.4992C14.5 9.74725 13.4972 8.23375 12.0353 7.4905H12.0368ZM8.50113 4C9.7417 4 10.7513 5.0095 10.7513 6.25C10.7513 7.4905 9.7417 8.5 8.50113 8.5C7.26055 8.5 6.25098 7.4905 6.25098 6.25C6.25098 5.0095 7.26055 4 8.50113 4ZM13.0014 13H4.00084V11.4992C4.00084 10.2962 4.71489 9.259 5.73945 8.78125C6.425 9.529 7.40681 10 8.50113 10C9.59544 10 10.5773 9.529 11.2628 8.78125C12.2874 9.25825 13.0014 10.2962 13.0014 11.4992V13Z" fill="currentColor"/>
</svg>
