<svg width="17" height="17" viewBox="0 0 17 17" fill="none" xmlns="http://www.w3.org/2000/svg">
<path d="M11.125 4.92857C12.1585 4.92857 13 5.89 13 7.07143C13 9.32429 10.1365 11.1521 8.5 11.9286C6.862 11.1507 4 9.32357 4 7.07143C4 5.89 4.8415 4.92857 5.875 4.92857C6.35725 4.92857 6.88525 5.24286 7.28725 5.76929L7.894 6.40214C8.19325 6.79429 8.8075 6.79429 9.10675 6.40214L9.7135 5.76929C10.1155 5.24286 10.6435 4.92857 11.1258 4.92857H11.125ZM11.125 3.5C10.0638 3.5 9.11875 4.11857 8.5 4.92857C7.88125 4.11857 6.93625 3.5 5.875 3.5C4.01125 3.5 2.5 5.09929 2.5 7.07143C2.5 11.1564 8.5 13.5 8.5 13.5C8.5 13.5 14.5 11.1564 14.5 7.07143C14.5 5.09929 12.9887 3.5 11.125 3.5Z" fill="currentColor"/>
</svg>
