<svg width="17" height="17" viewBox="0 0 17 17" fill="none" xmlns="http://www.w3.org/2000/svg">
<path d="M14.2127 7.96143L7.16667 3.5C6.79867 3.5 6.5 3.82 6.5 4.21429V5.61L3.16667 3.5C2.79867 3.5 2.5 3.82 2.5 4.21429V12.7857C2.5 13.18 2.79867 13.5 3.16667 13.5L6.5 11.3893V12.7857C6.5 13.18 6.79867 13.5 7.16667 13.5L14.2127 9.03857C14.3907 8.92571 14.5 8.72143 14.5 8.5C14.5 8.27857 14.3907 8.07357 14.2127 7.96143ZM6.5 9.73L3.83333 11.4186V5.58143L6.5 7.27V9.73ZM7.83333 11.4186V5.58143L12.4433 8.5L7.83333 11.4186Z" fill="currentColor"/>
</svg>
