<svg width="17" height="17" viewBox="0 0 17 17" fill="none" xmlns="http://www.w3.org/2000/svg">
<path d="M12.485 8.5C13.0064 8.5 13.4596 8.1415 13.5797 7.6345L14.4658 3.898C14.6436 3.18775 14.1064 2.5 13.3741 2.5H3.24955C2.83538 2.5 2.5 2.836 2.5 3.25C2.5 3.664 2.83613 4 3.24955 4H3.99985V10.375C3.99985 10.9967 4.5033 11.5 5.12454 11.5H12.9997C13.4138 11.5 13.7492 11.164 13.7492 10.75C13.7492 10.336 13.4138 10 12.9997 10H5.49969V8.5H12.485ZM5.49969 4H12.8999L12.1886 7H5.49969V4ZM5.87484 12.25C5.2536 12.25 4.74939 12.7533 4.74939 13.375C4.74939 13.9967 5.25285 14.5 5.87484 14.5C6.49684 14.5 7.00029 13.9967 7.00029 13.375C7.00029 12.7533 6.49684 12.25 5.87484 12.25ZM11.8742 12.25C11.253 12.25 10.7495 12.7533 10.7495 13.375C10.7495 13.9967 11.253 14.5 11.8742 14.5C12.4955 14.5 12.9997 13.9967 12.9997 13.375C12.9997 12.7533 12.4962 12.25 11.8742 12.25Z" fill="currentColor"/>
</svg>
