<svg width="17" height="17" viewBox="0 0 17 17" fill="none" xmlns="http://www.w3.org/2000/svg">
<path d="M7.75 6.87175V10.75C7.75 11.164 8.086 11.5 8.5 11.5C8.914 11.5 9.25 11.164 9.25 10.75V6.87175C10.1237 6.56275 10.75 5.7295 10.75 4.75C10.75 3.50725 9.74275 2.5 8.5 2.5C7.25725 2.5 6.25 3.50725 6.25 4.75C6.25 5.7295 6.87625 6.56275 7.75 6.87175ZM13.75 7H12.25C11.836 7 11.5 7.336 11.5 7.75C11.5 8.164 11.836 8.5 12.25 8.5H12.625C12.832 8.5 13 8.668 13 8.875V12.625C13 12.832 12.832 13 12.625 13H4.375C4.168 13 4 12.832 4 12.625V8.875C4 8.668 4.168 8.5 4.375 8.5H4.75C5.164 8.5 5.5 8.164 5.5 7.75C5.5 7.336 5.164 7 4.75 7H3.25C2.836 7 2.5 7.336 2.5 7.75V13.75C2.5 14.164 2.836 14.5 3.25 14.5H13.75C14.164 14.5 14.5 14.164 14.5 13.75V7.75C14.5 7.336 14.164 7 13.75 7Z" fill="currentColor"/>
</svg>
