<svg width="17" height="17" viewBox="0 0 17 17" fill="none" xmlns="http://www.w3.org/2000/svg">
<path d="M12.2573 9.99972H12.2423C11.832 9.99972 11.4997 10.332 11.4997 10.7423V12.6249C11.4997 12.8319 11.3317 12.9999 11.1246 12.9999H5.87481C5.66778 12.9999 5.49977 12.8319 5.49977 12.6249V10.7423C5.49977 10.332 5.16748 9.99972 4.75718 9.99972H4.74218C4.33264 9.99972 3.9996 10.332 3.9996 10.7423V13.7575C3.9996 14.1677 4.33189 14.5 4.74218 14.5H12.2565C12.6668 14.5 12.9991 14.1677 12.9991 13.7575V10.7423C12.9991 10.332 12.6675 9.99972 12.2573 9.99972Z" fill="currentColor"/>
<path d="M13.7979 4.37587L12.6233 3.20129C12.1567 2.73476 11.5469 2.506 10.9364 2.506C10.8741 2.506 10.8118 2.50825 10.7496 2.5135V2.5H6.24985V2.5135C6.18759 2.509 6.12533 2.506 6.06308 2.506C5.45251 2.506 4.84269 2.73551 4.37614 3.20129L3.20151 4.37587C2.26616 5.31118 2.26616 6.82852 3.20151 7.76383L3.23602 7.79758C3.70407 8.26561 4.31614 8.49963 4.9297 8.49963C5.54327 8.49963 6.15609 8.26561 6.62339 7.79758L6.7479 7.67382C7.15595 8.17711 7.77926 8.49963 8.47759 8.49963H8.5226C9.22167 8.49963 9.84424 8.17711 10.2523 7.67382L10.3768 7.79758C10.8449 8.26561 11.4577 8.49963 12.0705 8.49963C12.6833 8.49963 13.2961 8.26561 13.7642 7.79758L13.7979 7.76383C14.734 6.82777 14.734 5.31118 13.7979 4.37587ZM12.7373 6.70326L12.7028 6.73777C12.5333 6.90728 12.309 7.00028 12.0697 7.00028C11.8305 7.00028 11.6054 6.90728 11.4359 6.73777L11.3122 6.61326L10.2523 5.55269C10.19 5.49044 10.0873 5.49569 10.0318 5.56394L9.08666 6.72876C8.94714 6.90053 8.74162 6.99953 8.52185 6.99953H8.47684C8.25707 6.99953 8.05154 6.90128 7.91203 6.72876L6.98493 5.58644C6.92042 5.50619 6.79966 5.50019 6.7269 5.57294L5.56277 6.73777C5.39325 6.90728 5.16898 7.00028 4.9297 7.00028C4.69043 7.00028 4.4654 6.90728 4.29663 6.73777L4.26213 6.70326C3.91259 6.35374 3.91259 5.78671 4.26213 5.43718L5.43676 4.26261C5.65953 4.03985 5.92431 4.00684 6.06233 4.00684C6.08633 4.00684 6.22509 3.99859 6.2491 4.00084H10.7488C10.7728 3.99934 10.9116 4.00684 10.9356 4.00684C11.0744 4.00684 11.3392 4.03985 11.5619 4.26261L12.7366 5.43718C13.0861 5.78671 13.0861 6.35374 12.7366 6.70401L12.7373 6.70326Z" fill="currentColor"/>
</svg>
