<svg width="17" height="17" viewBox="0 0 17 17" fill="none" xmlns="http://www.w3.org/2000/svg">
<path d="M8.5 3C5.186 3 2.5 5.76994 2.5 9.1875C2.5 9.567 2.79867 9.875 3.16667 9.875C3.53467 9.875 3.83333 9.567 3.83333 9.1875C3.83333 6.53375 5.92667 4.375 8.5 4.375C11.0733 4.375 13.1667 6.53375 13.1667 9.1875C13.1667 9.567 13.4653 9.875 13.8333 9.875C14.2013 9.875 14.5 9.567 14.5 9.1875C14.5 5.76994 11.814 3 8.5 3Z" fill="currentColor"/>
<path d="M9.16667 8.58663V6.4375C9.16667 6.058 8.868 5.75 8.5 5.75C8.132 5.75 7.83333 6.058 7.83333 6.4375V8.58663C6.68333 8.89188 5.83333 9.9685 5.83333 11.25C5.83333 12.7687 7.02733 14 8.5 14C9.97267 14 11.1667 12.7687 11.1667 11.25C11.1667 9.9685 10.3167 8.89188 9.16667 8.58663ZM8.5 12.625C7.76467 12.625 7.16667 12.0083 7.16667 11.25C7.16667 10.4917 7.76467 9.875 8.5 9.875C9.23533 9.875 9.83333 10.4917 9.83333 11.25C9.83333 12.0083 9.23533 12.625 8.5 12.625Z" fill="currentColor"/>
</svg>
