<svg width="17" height="17" viewBox="0 0 17 17" fill="none" xmlns="http://www.w3.org/2000/svg">
<path d="M3.25 2.5C2.836 2.5 2.5 2.836 2.5 3.25V13.75C2.5 14.164 2.836 14.5 3.25 14.5C3.664 14.5 4 14.164 4 13.75V3.25C4 2.836 3.664 2.5 3.25 2.5Z" fill="currentColor"/>
<path d="M13.75 2.5H6.25C5.836 2.5 5.5 2.836 5.5 3.25V9.25C5.5 9.664 5.836 10 6.25 10H13.75C14.164 10 14.5 9.664 14.5 9.25V3.25C14.5 2.836 14.164 2.5 13.75 2.5ZM13 8.125C13 8.332 12.832 8.5 12.625 8.5H7.375C7.168 8.5 7 8.332 7 8.125V4.375C7 4.168 7.168 4 7.375 4H12.625C12.832 4 13 4.168 13 4.375V8.125Z" fill="currentColor"/>
</svg>
