<svg width="17" height="17" viewBox="0 0 17 17" fill="none" xmlns="http://www.w3.org/2000/svg">
<path d="M13.8333 3H3.16667C2.79867 3 2.5 3.308 2.5 3.6875V13.3125C2.5 13.692 2.79867 14 3.16667 14H13.8333C14.2013 14 14.5 13.692 14.5 13.3125V3.6875C14.5 3.308 14.2013 3 13.8333 3ZM13.1667 12.2812C13.1667 12.471 13.0173 12.625 12.8333 12.625H7.43467L11.1693 8.77362L13.1667 10.8334V12.2812ZM13.1667 8.91662L11.72 7.42475C11.6967 7.38969 11.67 7.356 11.64 7.32506C11.5093 7.19031 11.3367 7.12362 11.1653 7.12569C10.9947 7.12362 10.8233 7.18962 10.6927 7.32437C10.666 7.35187 10.642 7.38213 10.6207 7.41306L5.566 12.6257H4.16733C3.98333 12.6257 3.834 12.4717 3.834 12.2819V4.71944C3.834 4.52969 3.98333 4.37569 4.16733 4.37569H12.8333C13.0173 4.37569 13.1667 4.52969 13.1667 4.71944V8.91731V8.91662Z" fill="currentColor"/>
<path d="M6.5 5.75C5.76333 5.75 5.16667 6.36531 5.16667 7.125C5.16667 7.88469 5.76333 8.5 6.5 8.5C7.236 8.5 7.83333 7.88469 7.83333 7.125C7.83333 6.36531 7.236 5.75 6.5 5.75Z" fill="currentColor"/>
</svg>
