<svg width="17" height="17" viewBox="0 0 17 17" fill="none" xmlns="http://www.w3.org/2000/svg">
<path d="M14.491 6.83325C14.479 6.58258 14.4535 6.32591 14.4235 6.06391C14.2143 4.24723 12.5849 2.75721 10.5505 2.53188C8.35565 2.28854 6.43151 3.46455 5.76114 5.16657C5.67715 5.1599 5.59242 5.15524 5.50619 5.15524C3.86024 5.15524 2.5 6.34925 2.5 7.81526V8.47927C2.5 8.84194 2.85618 9.13794 3.26336 9.13794H3.27835C3.68553 9.13794 3.99672 8.82661 3.99672 8.46394V7.9406C3.91049 7.14926 4.6356 6.48325 5.50619 6.48325C5.54968 6.48325 5.59242 6.48658 5.63516 6.48992L6.21255 6.48325C6.55149 6.50858 6.86418 6.37725 6.97666 6.09191L7.13863 5.68057C7.53156 4.6819 8.52362 3.93189 9.70765 3.83856C11.5411 3.69389 13.1248 5.0679 13.0018 6.69392L12.9995 6.83392V8.54194H13.007C13.0288 8.88927 13.3715 9.16728 13.7666 9.16728H13.7816C14.1708 9.16728 14.4678 8.88327 14.4948 8.54194H14.5V6.83392H14.4918L14.491 6.83325Z" fill="currentColor"/>
<path d="M6.99991 7.83326C6.58598 7.83326 6.25005 8.13193 6.25005 8.49994V9.83328C6.25005 10.2013 6.58598 10.5 6.99991 10.5C7.41383 10.5 7.74977 10.2013 7.74977 9.83328V8.49994C7.74977 8.13193 7.41383 7.83326 6.99991 7.83326Z" fill="currentColor"/>
<path d="M6.99991 11.8333C6.58598 11.8333 6.25005 12.1313 6.25005 12.5V13.8333C6.25005 14.2013 6.58598 14.5 6.99991 14.5C7.41383 14.5 7.74977 14.2013 7.74977 13.8333V12.5C7.74977 12.1313 7.41383 11.8333 6.99991 11.8333Z" fill="currentColor"/>
<path d="M9.99934 6.49992C9.58542 6.49992 9.24948 6.79859 9.24948 7.16659V8.49994C9.24948 8.86861 9.58542 9.16661 9.99934 9.16661C10.4133 9.16661 10.7492 8.86861 10.7492 8.49994V7.16659C10.7492 6.79859 10.4133 6.49992 9.99934 6.49992Z" fill="currentColor"/>
<path d="M9.99934 10.5C9.58542 10.5 9.24948 10.7986 9.24948 11.1666V12.5C9.24948 12.868 9.58542 13.1667 9.99934 13.1667C10.4133 13.1667 10.7492 12.868 10.7492 12.5V11.1666C10.7492 10.7986 10.4133 10.5 9.99934 10.5Z" fill="currentColor"/>
</svg>
