<svg width="17" height="17" viewBox="0 0 17 17" fill="none" xmlns="http://www.w3.org/2000/svg">
<path d="M7.00016 4C8.65435 4 10 5.3455 10 7C10 7.62325 9.80768 8.2225 9.4441 8.734L9.14842 9.14875L8.73355 9.4435C8.22213 9.80725 7.62246 10 7.00016 10C5.34598 10 4.00031 8.6545 4.00031 7C4.00031 5.3455 5.34598 4 7.00016 4ZM7.00016 2.5C4.51474 2.5 2.5 4.5145 2.5 7C2.5 9.4855 4.51474 11.5 7.00016 11.5C7.97171 11.5 8.86857 11.1895 9.60326 10.666L13.2171 14.2803C13.3642 14.4273 13.5566 14.5 13.7489 14.5C13.9413 14.5 14.1336 14.4265 14.2799 14.2803C14.5734 13.987 14.5734 13.5115 14.2799 13.2183L10.6661 9.604C11.1896 8.869 11.4996 7.97125 11.4996 7.00075C11.4996 4.51525 9.48484 2.50075 7.00016 2.50075V2.5Z" fill="currentColor"/>
</svg>
