<svg width="17" height="17" viewBox="0 0 17 17" fill="none" xmlns="http://www.w3.org/2000/svg">
<path d="M4.09564 7.78735L6.97477 4.70174C7.22882 4.42961 7.22882 3.98748 6.97477 3.71464L6.96544 3.70464C6.7114 3.43179 6.29866 3.43179 6.04462 3.70464L2.76609 7.21737C2.74342 7.23594 2.72008 7.25379 2.69875 7.27665L2.68941 7.28665C2.56072 7.4245 2.49805 7.60593 2.50005 7.78663C2.49871 7.96734 2.56072 8.14876 2.68941 8.28662L2.69875 8.29661C2.72008 8.31876 2.74342 8.33661 2.76609 8.3559L6.04462 11.8686C6.29866 12.1415 6.7114 12.1415 6.96544 11.8686L6.97477 11.8586C7.22882 11.5865 7.22882 11.1444 6.97477 10.8715L4.09564 7.78663V7.78735Z" fill="currentColor"/>
<path d="M11.1655 7.07309H8.09562L10.308 4.70246C10.562 4.43032 10.562 3.9882 10.308 3.71535L10.2986 3.70535C10.0446 3.4325 9.63187 3.4325 9.37783 3.70535L6.0993 7.21808C6.07663 7.23665 6.05329 7.25451 6.03195 7.27737L6.02862 7.28094C6.02862 7.28094 6.02729 7.28237 6.02662 7.28379L6.02262 7.28737C6.00062 7.31165 5.98195 7.33879 5.96394 7.36522C5.95861 7.37308 5.95127 7.38022 5.94594 7.38879C5.86993 7.50736 5.83192 7.64592 5.83259 7.78449L5.83192 7.78735L5.83259 7.7902C5.83192 7.92877 5.86993 8.06662 5.94594 8.1859C5.95127 8.19376 5.95794 8.2009 5.96328 8.20948C5.98195 8.2359 5.99995 8.26304 6.02262 8.28733L6.02662 8.2909L6.02862 8.29304L6.03262 8.29661C6.05329 8.31876 6.07663 8.33661 6.09997 8.3559L9.3785 11.8686C9.63254 12.1415 10.0453 12.1415 10.2993 11.8686L10.3087 11.8586C10.5627 11.5865 10.5627 11.1444 10.3087 10.8715L8.09629 8.50089H11.1661C12.269 8.50089 13.1664 9.46229 13.1664 10.6444V12.7857C13.1664 13.18 13.4645 13.5 13.8332 13.5C14.202 13.5 14.5 13.18 14.5 12.7857V10.6444C14.5 8.6716 13.0078 7.07237 11.1668 7.07237L11.1655 7.07309Z" fill="currentColor"/>
</svg>
