<svg width="17" height="17" viewBox="0 0 17 17" fill="none" xmlns="http://www.w3.org/2000/svg">
<path d="M14.1875 7.6875H13.3076C12.9647 5.6465 11.3543 4.03531 9.3125 3.69244V2.8125C9.3125 2.364 8.9485 2 8.5 2C8.0515 2 7.6875 2.364 7.6875 2.8125V3.69244C5.6465 4.03531 4.03531 5.64569 3.69244 7.6875H2.8125C2.364 7.6875 2 8.0515 2 8.5C2 8.9485 2.364 9.3125 2.8125 9.3125H3.69244C4.03531 11.3535 5.64569 12.9647 7.6875 13.3076V14.1875C7.6875 14.636 8.0515 15 8.5 15C8.9485 15 9.3125 14.636 9.3125 14.1875V13.3076C11.3535 12.9647 12.9647 11.3543 13.3076 9.3125H14.1875C14.636 9.3125 15 8.9485 15 8.5C15 8.0515 14.636 7.6875 14.1875 7.6875ZM9.3125 11.6468V10.9375C9.3125 10.489 8.9485 10.125 8.5 10.125C8.0515 10.125 7.6875 10.489 7.6875 10.9375V11.6468C6.54675 11.3519 5.64731 10.4524 5.35319 9.3125H6.0625C6.511 9.3125 6.875 8.9485 6.875 8.5C6.875 8.0515 6.511 7.6875 6.0625 7.6875H5.35319C5.64812 6.54675 6.54756 5.64731 7.6875 5.35319V6.0625C7.6875 6.511 8.0515 6.875 8.5 6.875C8.9485 6.875 9.3125 6.511 9.3125 6.0625V5.35319C10.4533 5.64812 11.3527 6.54756 11.6468 7.6875H10.9375C10.489 7.6875 10.125 8.0515 10.125 8.5C10.125 8.9485 10.489 9.3125 10.9375 9.3125H11.6468C11.3519 10.4533 10.4524 11.3527 9.3125 11.6468Z" fill="currentColor"/>
</svg>
