<svg width="17" height="17" viewBox="0 0 17 17" fill="none" xmlns="http://www.w3.org/2000/svg">
<path d="M8.8913 6.53712C8.75876 6.51178 8.62755 6.49978 8.50033 6.49978C7.2675 6.49978 6.29575 7.61457 6.53752 8.89138C6.68605 9.67413 7.32611 10.3149 8.1087 10.4629C8.24124 10.4882 8.37179 10.5002 8.49967 10.5002C9.7325 10.5002 10.7043 9.38543 10.4625 8.10862C10.314 7.32587 9.67389 6.68513 8.8913 6.53712ZM9.01385 8.92471C8.88663 9.07873 8.69881 9.16674 8.49967 9.16674C8.45304 9.16674 8.40442 9.16207 8.35647 9.15274C8.11203 9.10673 7.89357 8.88738 7.84695 8.64335C7.79567 8.37399 7.89424 8.1853 7.98549 8.07529C8.1127 7.92127 8.30052 7.83326 8.49967 7.83326C8.54629 7.83326 8.59424 7.83793 8.64286 7.84726C8.8873 7.89327 9.10643 8.11262 9.15238 8.35665C9.20367 8.62601 9.10509 8.8147 9.01385 8.92471Z" fill="currentColor"/>
<path d="M13.836 9.16674H12.4979C12.1309 9.16674 11.8339 8.86937 11.8339 8.50267V8.498C11.8339 8.13129 12.1309 7.83393 12.4979 7.83393H13.836C14.2029 7.83393 14.5 8.13129 14.5 8.498V8.50267C14.5 8.86937 14.2029 9.16674 13.836 9.16674Z" fill="currentColor"/>
<path d="M8.503 11.8337H8.49833C8.13135 11.8337 7.8343 12.1311 7.8343 12.4978V13.8359C7.8343 14.2026 8.13135 14.5 8.49833 14.5H8.503C8.86998 14.5 9.16704 14.2026 9.16704 13.8359V12.4978C9.16704 12.1311 8.86998 11.8337 8.503 11.8337Z" fill="currentColor"/>
<path d="M8.49767 5.1663H8.50233C8.86932 5.1663 9.16637 4.86893 9.16637 4.50222V3.16407C9.16637 2.79737 8.86932 2.5 8.50233 2.5H8.49767C8.13068 2.5 7.83363 2.79737 7.83363 3.16407V4.50222C7.83363 4.86893 8.13068 5.1663 8.49767 5.1663Z" fill="currentColor"/>
<path d="M5.16748 8.50267V8.498C5.16748 8.13129 4.86976 7.83393 4.50278 7.83393H3.16471C2.79772 7.83393 2.5 8.13129 2.5 8.498V8.50267C2.5 8.86937 2.79772 9.16674 3.16471 9.16674H4.50278C4.86976 9.16674 5.16748 8.86937 5.16748 8.50267Z" fill="currentColor"/>
<path d="M12.2388 5.64902L12.9834 4.90427C13.2285 4.65891 13.2285 4.26153 12.9834 4.01617C12.7383 3.77081 12.3407 3.77081 12.0956 4.01617L11.351 4.76092C11.1059 5.00628 11.1059 5.40366 11.351 5.64902C11.5961 5.89438 11.9937 5.89438 12.2388 5.64902Z" fill="currentColor"/>
<path d="M4.90573 4.01684C4.66063 3.77147 4.263 3.77147 4.0179 4.01684C3.7728 4.2622 3.7728 4.65957 4.0179 4.90493L4.76253 5.64968C5.00763 5.89504 5.40459 5.89504 5.65036 5.64968C5.89613 5.40432 5.89546 5.00695 5.65036 4.76158L4.90573 4.01684Z" fill="currentColor"/>
<path d="M4.76253 11.351L4.0179 12.0957C3.7728 12.3411 3.7728 12.7385 4.0179 12.9838C4.263 13.2292 4.66063 13.2292 4.90573 12.9838L5.65036 12.2391C5.89546 11.9937 5.89546 11.5963 5.65036 11.351C5.40526 11.1056 5.00763 11.1056 4.76253 11.351Z" fill="currentColor"/>
<path d="M12.2388 11.351C11.9937 11.1056 11.5961 11.1056 11.351 11.351C11.1059 11.5963 11.1059 11.9937 11.351 12.2391L12.0956 12.9838C12.3407 13.2292 12.7377 13.2292 12.9834 12.9838C13.2292 12.7385 13.2285 12.3411 12.9834 12.0957L12.2388 11.351Z" fill="currentColor"/>
</svg>
