<svg width="17" height="17" viewBox="0 0 17 17" fill="none" xmlns="http://www.w3.org/2000/svg">
<path d="M14.5 8.5C14.5 5.1865 11.8135 2.5 8.5 2.5C5.1865 2.5 2.5 5.1865 2.5 8.5C2.5 11.8135 5.1865 14.5 8.5 14.5C11.8135 14.5 14.5 11.8135 14.5 8.5ZM4 8.5C4 6.01825 6.01825 4 8.5 4C10.9818 4 13 6.01825 13 8.5C13 10.9818 10.9818 13 8.5 13C6.01825 13 4 10.9818 4 8.5Z" fill="currentColor"/>
<path d="M9.2485 10.7575V8.03275L10.2183 9.0205C10.5123 9.3115 10.987 9.3115 11.281 9.0205C11.575 8.7295 11.5743 8.2585 11.281 7.96825L9.05575 5.71825C8.91475 5.57875 8.72425 5.5 8.524 5.5C8.51575 5.5 8.50675 5.5 8.4985 5.50075C8.49025 5.5015 8.48125 5.5 8.473 5.5C8.2735 5.5 8.08225 5.57875 7.94125 5.71825L5.716 7.96825C5.42275 8.25925 5.42275 8.73025 5.716 9.0205C6.00925 9.31075 6.48475 9.3115 6.77875 9.0205L7.74925 8.03275V10.7575C7.74925 11.1678 8.0815 11.5 8.49175 11.5H8.50525C8.9155 11.5 9.24775 11.1678 9.24775 10.7575H9.2485Z" fill="currentColor"/>
</svg>
