<svg width="17" height="17" viewBox="0 0 17 17" fill="none" xmlns="http://www.w3.org/2000/svg">
<path d="M13.9924 7.46867C13.9814 7.21017 13.9581 6.94548 13.9306 6.67529C13.7388 4.80183 12.2447 3.26525 10.3801 3.03287C8.36838 2.78193 6.60412 3.9947 5.98969 5.7499C5.91271 5.74303 5.83505 5.73822 5.75601 5.73822C4.24742 5.73822 3 6.96954 3 8.48137V9.16613C3 9.54082 3.32646 9.84539 3.69966 9.84539H3.7134C4.0866 9.84539 4.37182 9.52432 4.37182 9.15032V8.60994C4.29278 7.79386 4.95739 7.10704 5.75601 7.10704C5.79588 7.10704 5.83505 7.11048 5.87423 7.11392L6.40344 7.10704C6.71409 7.13386 7.00069 6.99773 7.10378 6.70348L7.25223 6.27928C7.61237 5.24871 8.52165 4.47595 9.60687 4.3797C11.2873 4.23051 12.7388 5.64746 12.6268 7.3243L12.6247 7.46867V9.23076H12.6316C12.6515 9.58895 12.9656 9.87495 13.3278 9.87495H13.3416C13.6983 9.87495 13.9704 9.58207 13.9952 9.23076H14V7.46867H13.9924Z" fill="currentColor"/>
<path d="M11.0371 10.768L8.96014 8.7C8.83161 8.57212 8.65773 8.49994 8.4756 8.49994C8.29347 8.49994 8.11959 8.57212 7.99107 8.7L5.9622 10.7625C5.69485 11.0286 5.69485 11.4603 5.9622 11.7271C6.22955 11.9939 6.66323 11.9939 6.93058 11.7271L7.81512 10.8216V13.3194C7.81512 13.6954 8.11821 14 8.4921 14H8.50584C8.87973 14 9.18282 13.6954 9.18282 13.3194V10.9262L9.27148 10.9406L10.0399 11.7065C10.2825 11.9478 10.6708 12.0069 10.9485 11.8068C11.301 11.5532 11.3299 11.0609 11.0357 10.768H11.0371Z" fill="currentColor"/>
</svg>
