<svg width="17" height="17" viewBox="0 0 17 17" fill="none" xmlns="http://www.w3.org/2000/svg">
<path d="M12.7 7H12.595C12.8508 6.55825 13 6.0475 13 5.5C13 3.84325 11.6568 2.5 10 2.5C8.34325 2.5 7 3.84325 7 5.5C5.34325 5.5 4 6.84325 4 8.5C4 9.04675 4.1485 9.55825 4.405 10H4.3C3.23125 10.4785 2.5 11.5038 2.5 12.5973V13.75C2.5 14.0133 2.9155 14.5 3.22675 14.5H10.8438C11.155 14.5 11.5 14.0133 11.5 13.75V12.5973C11.5 12.2155 11.4062 11.8442 11.245 11.5H13.8438C14.155 11.5 14.5 11.0133 14.5 10.75V9.59725C14.5 8.50375 13.7688 7.4785 12.7 7ZM10 4C10.8273 4 11.5 4.67275 11.5 5.5C11.5 6.32725 10.8273 7 10 7C9.84175 7 9.69175 6.9685 9.5485 6.92275C9.304 6.52825 8.971 6.196 8.5765 5.9515C8.53075 5.80825 8.49925 5.65825 8.49925 5.5C8.49925 4.67275 9.172 4 9.99925 4H10ZM7 7C7.82875 7 8.5 7.672 8.5 8.5C8.5 9.328 7.828 10 7 10C6.259 10 5.64625 9.46075 5.5255 8.75425C5.50975 8.67175 5.5 8.58775 5.5 8.5C5.5 7.67125 6.172 7 7 7ZM10 13H4V12.5973C4 12.19 4.267 11.767 4.6735 11.5H9.32575C9.73225 11.767 9.99925 12.19 9.99925 12.5973V13H10ZM13 10H9.595C9.85075 9.55825 10 9.0475 10 8.5H12.3265C12.733 8.767 13 9.19 13 9.59725V10Z" fill="currentColor"/>
</svg>
