<svg width="17" height="17" viewBox="0 0 17 17" fill="none" xmlns="http://www.w3.org/2000/svg">
<path d="M13.8333 3.5H7.16667C6.79867 3.5 6.5 3.78 6.5 4.125V6H3.16667C2.79867 6 2.5 6.28 2.5 6.625V12.875C2.5 13.22 2.79867 13.5 3.16667 13.5H9.83333C10.2013 13.5 10.5 13.22 10.5 12.875V11H13.8333C14.2013 11 14.5 10.72 14.5 10.375V4.125C14.5 3.78 14.2013 3.5 13.8333 3.5ZM9.16667 11.9375C9.16667 12.11 9.01733 12.25 8.83333 12.25H4.16667C3.98267 12.25 3.83333 12.11 3.83333 11.9375V7.5625C3.83333 7.39 3.98267 7.25 4.16667 7.25H8.83333C9.01733 7.25 9.16667 7.39 9.16667 7.5625V11.9375ZM13.1667 9.4375C13.1667 9.61 13.0173 9.75 12.8333 9.75H10.5V6.625C10.5 6.28 10.2013 6 9.83333 6H7.83333V5.0625C7.83333 4.89 7.98267 4.75 8.16667 4.75H12.8333C13.0173 4.75 13.1667 4.89 13.1667 5.0625V9.4375Z" fill="currentColor"/>
</svg>
