<svg width="17" height="17" viewBox="0 0 17 17" fill="none" xmlns="http://www.w3.org/2000/svg">
<path d="M13.749 10C13.3344 10 12.9992 10.336 12.9992 10.75V12.625C12.9992 12.832 12.8312 13 12.6243 13H4.37459C4.16764 13 3.99967 12.832 3.99967 12.625V4.375C3.99967 4.168 4.16764 4 4.37459 4H6.24918C6.66384 4 6.99902 3.664 6.99902 3.25C6.99902 2.836 6.66309 2.5 6.24918 2.5H3.24984C2.83518 2.5 2.5 2.836 2.5 3.25V13.75C2.5 14.164 2.83593 14.5 3.24984 14.5H13.749C14.1637 14.5 14.4989 14.164 14.4989 13.75V10.75C14.4989 10.336 14.1637 10 13.749 10Z" fill="currentColor"/>
<path d="M11.6255 4.30225L12.697 5.374L8.23699 10H6.99977V8.7625L11.6255 4.30225ZM11.6353 2.5C11.4433 2.5 11.2521 2.57275 11.1059 2.719L5.50009 8.125V11.5H8.87511L14.2807 5.89375C14.5731 5.60125 14.5731 5.128 14.2807 4.8355L12.1646 2.719C12.0192 2.57275 11.8265 2.5 11.6353 2.5Z" fill="currentColor"/>
</svg>
