<svg width="20" height="20" viewBox="0 0 20 20" fill="none" xmlns="http://www.w3.org/2000/svg">
<path d="M14.4444 3.875C14.4444 3.392 14.0462 3 13.5556 3H6.44444C5.95378 3 5.55556 3.392 5.55556 3.875L2 10V16.125C2 16.608 2.39822 17 2.88889 17H17.1111C17.6018 17 18 16.608 18 16.125V10L14.4444 3.875ZM7.09511 4.75H12.904L15.4436 9.125H12.2213C11.976 9.125 11.7769 9.321 11.7769 9.5625V9.92213C11.7769 10.8356 11.1004 11.6529 10.1769 11.7412C9.11733 11.8427 8.22133 11.022 8.22133 10V9.5625C8.22133 9.321 8.02222 9.125 7.77689 9.125H4.55467L7.09511 4.75ZM16.2222 14.8125C16.2222 15.054 16.0231 15.25 15.7778 15.25H4.22222C3.97689 15.25 3.77778 15.054 3.77778 14.8125V10.875H6.56089C6.95644 12.3835 8.344 13.5 10 13.5C11.656 13.5 13.0436 12.3835 13.4391 10.875H16.2222V14.8125Z" fill="currentColor"/>
</svg>
