<svg width="20" height="20" viewBox="0 0 20 20" fill="none" xmlns="http://www.w3.org/2000/svg">
<path d="M17.092 10.234C17.65 9.387 17.978 8.359 17.978 7.25C17.978 4.351 15.745 2 12.989 2C10.598 2 8.603 3.771 8.116 6.134C7.76 6.049 7.392 6 7.012 6C4.257 6 2.023 8.351 2.023 11.25C2.023 12.359 2.351 13.386 2.909 14.234L2 18L6.802 16.489C6.872 16.492 6.941 16.5 7.011 16.5C9.402 16.5 11.397 14.729 11.884 12.366C12.24 12.451 12.608 12.5 12.989 12.5C13.06 12.5 13.129 12.492 13.198 12.489L18 14L17.092 10.234ZM9.992 11.439C9.975 11.756 9.917 12.061 9.822 12.347C9.822 12.349 9.821 12.35 9.821 12.352C9.79 12.445 9.756 12.536 9.717 12.624C9.715 12.628 9.713 12.633 9.711 12.638C9.674 12.723 9.634 12.806 9.591 12.887C9.586 12.897 9.58 12.906 9.574 12.916C9.533 12.991 9.49 13.064 9.443 13.134C9.432 13.15 9.421 13.166 9.41 13.182C9.367 13.245 9.323 13.306 9.276 13.366C9.257 13.389 9.238 13.412 9.218 13.435C9.176 13.485 9.135 13.534 9.091 13.58C9.061 13.612 9.028 13.642 8.997 13.673C8.961 13.708 8.926 13.744 8.889 13.777C8.841 13.819 8.791 13.858 8.741 13.897C8.717 13.916 8.694 13.936 8.669 13.954C8.596 14.007 8.52 14.057 8.442 14.103C8.438 14.105 8.435 14.108 8.431 14.11C8.092 14.31 7.713 14.441 7.31 14.485C7.305 14.485 7.299 14.485 7.294 14.486C7.211 14.494 7.126 14.501 7.04 14.502L7.027 14.501C7.026 14.501 7.026 14.501 7.025 14.501C7.018 14.501 7.01 14.502 7.003 14.502C6.897 14.502 6.791 14.496 6.688 14.484L6.541 14.477L4.778 15.032L4.857 14.705L5.061 13.861L4.758 13.401C4.29 12.828 4.004 12.077 4.004 11.252C4.004 9.457 5.347 8.002 7.004 8.002C7.006 8.002 7.008 8.002 7.01 8.002C7.012 8.002 7.013 8.002 7.015 8.002C7.114 8.002 7.212 8.008 7.308 8.019C7.317 8.02 7.327 8.022 7.335 8.023C7.421 8.033 7.506 8.047 7.589 8.065C7.634 8.075 7.677 8.088 7.721 8.099C7.765 8.11 7.812 8.122 7.857 8.137C7.912 8.155 7.965 8.176 8.019 8.197C8.043 8.206 8.068 8.214 8.092 8.224C8.092 8.225 8.092 8.225 8.092 8.226C9.21 8.699 10.003 9.873 10.003 11.252C10.003 11.316 9.997 11.378 9.994 11.441L9.992 11.439ZM15.422 9.134L14.944 9.859L15.227 11.03L13.464 10.475L13.112 10.49C13.066 10.492 13.021 10.495 12.976 10.498L12.963 10.499C12.592 10.495 12.239 10.415 11.912 10.277C11.679 8.967 10.982 7.832 10.01 7.06C10.101 5.356 11.401 3.999 12.99 3.999C14.638 3.999 15.979 5.457 15.979 7.249C15.979 7.928 15.787 8.58 15.422 9.134Z" fill="currentColor"/>
</svg>
