<svg width="20" height="20" viewBox="0 0 20 20" fill="none" xmlns="http://www.w3.org/2000/svg">
<path d="M15.3133 10C16.0086 10 16.6128 9.522 16.7729 8.846L17.9543 3.864C18.1914 2.917 17.4752 2 16.4988 2H2.9994C2.44718 2 2 2.448 2 3C2 3.552 2.44818 4 2.9994 4H3.9998V12.5C3.9998 13.329 4.67106 14 5.49939 14H15.9996C16.5518 14 16.999 13.552 16.999 13C16.999 12.448 16.5518 12 15.9996 12H5.99959V10H15.3133ZM5.99959 4H15.8665L14.9181 8H5.99959V4ZM6.49979 15C5.67146 15 4.99919 15.671 4.99919 16.5C4.99919 17.329 5.67046 18 6.49979 18C7.32912 18 8.00039 17.329 8.00039 16.5C8.00039 15.671 7.32912 15 6.49979 15ZM14.499 15C13.6706 15 12.9994 15.671 12.9994 16.5C12.9994 17.329 13.6706 18 14.499 18C15.3273 18 15.9996 17.329 15.9996 16.5C15.9996 15.671 15.3283 15 14.499 15Z" fill="currentColor"/>
</svg>
