<svg width="20" height="20" viewBox="0 0 20 20" fill="none" xmlns="http://www.w3.org/2000/svg">
<path d="M4 16V2H2V17C2 17.552 2.448 18 3 18H18V16H4Z" fill="currentColor"/>
<path d="M6.5 14H7.5C7.776 14 8 13.776 8 13.5V8.5C8 8.224 7.776 8 7.5 8H6.5C6.224 8 6 8.224 6 8.5V13.5C6 13.776 6.224 14 6.5 14Z" fill="currentColor"/>
<path d="M9.5 14H10.5C10.776 14 11 13.776 11 13.5V4.5C11 4.224 10.776 4 10.5 4H9.5C9.224 4 9 4.224 9 4.5V13.5C9 13.776 9.224 14 9.5 14Z" fill="currentColor"/>
<path d="M12.5 14H13.5C13.776 14 14 13.776 14 13.5V10.5C14 10.224 13.776 10 13.5 10H12.5C12.224 10 12 10.224 12 10.5V13.5C12 13.776 12.224 14 12.5 14Z" fill="currentColor"/>
<path d="M15.5 14H16.5C16.776 14 17 13.776 17 13.5V6.5C17 6.224 16.776 6 16.5 6H15.5C15.224 6 15 6.224 15 6.5V13.5C15 13.776 15.224 14 15.5 14Z" fill="currentColor"/>
</svg>
