<svg width="20" height="20" viewBox="0 0 20 20" fill="none" xmlns="http://www.w3.org/2000/svg">
<path d="M12 6C14.296 6 16.147 7.945 15.991 10.274C15.849 12.398 13.988 14 11.859 14H6.089C5.045 14 4.111 13.239 4.01 12.2C3.894 11.008 4.831 10 6 10C6.059 10 6.116 10.005 6.173 10.01L6.945 10.076C7.399 10.115 7.822 9.841 7.973 9.41L8.229 8.679C8.791 7.077 10.306 6 12 6ZM12 4C9.382 4 7.162 5.679 6.342 8.017C6.229 8.007 6.115 8 6 8C3.791 8 2 9.791 2 12C2 14.209 3.791 16 6 16H12C15.313 16 18 13.314 18 10C18 6.686 15.313 4 12 4Z" fill="currentColor"/>
</svg>
