<svg width="20" height="20" viewBox="0 0 20 20" fill="none" xmlns="http://www.w3.org/2000/svg">
<path d="M17.1658 8.86043L15.8405 8.63942C15.6874 7.98237 15.4274 7.36734 15.0783 6.8133L15.8165 5.78024C16.0975 5.38621 16.0535 4.84618 15.7114 4.50416L15.4974 4.29014C15.1553 3.94812 14.6152 3.90312 14.2211 4.18514L13.1878 4.92318C12.6327 4.57416 12.0185 4.31414 11.3613 4.16114L11.1403 2.83605C11.0603 2.35402 10.6422 2 10.154 2H9.84796C9.35884 2 8.94174 2.35302 8.86172 2.83605L8.64066 4.16114C7.9835 4.31414 7.36934 4.57416 6.8142 4.92318L5.78095 4.18514C5.38685 3.90412 4.84671 3.94812 4.50463 4.29014L4.29057 4.50416C3.94849 4.84718 3.90348 5.38621 4.18555 5.78024L4.92373 6.8133C4.57464 7.36834 4.31458 7.98237 4.16154 8.63942L2.83621 8.86043C2.35409 8.94143 2 9.35846 2 9.84749V10.1535C2 10.6425 2.35309 11.0596 2.83521 11.1396L4.16054 11.3606C4.31358 12.0176 4.57364 12.6327 4.92273 13.1867L4.18455 14.2198C3.90348 14.6138 3.94749 15.1538 4.28957 15.4958L4.50363 15.7099C4.84571 16.0519 5.38585 16.0969 5.77995 15.8149L6.8132 15.0768C7.36834 15.4258 7.9825 15.6859 8.63966 15.8389L8.86072 17.1639C8.94074 17.646 9.35884 18 9.84696 18H10.153C10.6422 18 11.0593 17.647 11.1393 17.1639L11.3603 15.8389C12.0175 15.6859 12.6317 15.4258 13.1868 15.0768L14.2201 15.8149C14.6142 16.0959 15.1543 16.0519 15.4964 15.7099L15.7104 15.4958C16.0525 15.1528 16.0975 14.6138 15.8155 14.2198L15.0773 13.1867C15.4264 12.6317 15.6864 12.0176 15.8395 11.3606L17.1648 11.1396C17.6469 11.0596 18 10.6415 18 10.1535V9.84749C18 9.35846 17.6469 8.94143 17.1648 8.86043H17.1658ZM9.999 12.9997C8.34159 12.9997 6.99825 11.6566 6.99825 9.9995C6.99825 8.3424 8.34159 6.99931 9.999 6.99931C11.6564 6.99931 12.9998 8.3424 12.9998 9.9995C12.9998 11.6566 11.6564 12.9997 9.999 12.9997Z" fill="currentColor"/>
</svg>
