<svg width="20" height="20" viewBox="0 0 20 20" fill="none" xmlns="http://www.w3.org/2000/svg">
<path d="M10 3C5.58133 3 2 6.52537 2 10.875C2 11.358 2.39822 11.75 2.88889 11.75C3.37956 11.75 3.77778 11.358 3.77778 10.875C3.77778 7.4975 6.56889 4.75 10 4.75C13.4311 4.75 16.2222 7.4975 16.2222 10.875C16.2222 11.358 16.6204 11.75 17.1111 11.75C17.6018 11.75 18 11.358 18 10.875C18 6.52537 14.4187 3 10 3Z" fill="currentColor"/>
<path d="M10.8889 10.1103V7.375C10.8889 6.892 10.4907 6.5 10 6.5C9.50933 6.5 9.11111 6.892 9.11111 7.375V10.1103C7.57778 10.4988 6.44444 11.869 6.44444 13.5C6.44444 15.4329 8.03644 17 10 17C11.9636 17 13.5556 15.4329 13.5556 13.5C13.5556 11.869 12.4222 10.4988 10.8889 10.1103ZM10 15.25C9.01956 15.25 8.22222 14.4651 8.22222 13.5C8.22222 12.5349 9.01956 11.75 10 11.75C10.9804 11.75 11.7778 12.5349 11.7778 13.5C11.7778 14.4651 10.9804 15.25 10 15.25Z" fill="currentColor"/>
</svg>
