<svg width="20" height="20" viewBox="0 0 20 20" fill="none" xmlns="http://www.w3.org/2000/svg">
<path d="M17.988 8.49989C17.972 8.12388 17.938 7.73888 17.898 7.34588C17.6191 4.62084 15.4458 2.38582 12.7336 2.04781C9.80756 1.68281 7.24136 3.44683 6.34864 5.99986C6.23668 5.98986 6.12371 5.98286 6.00875 5.98286C3.81443 5.98286 2 7.77388 2 9.97291V10.9689C2 11.5139 2.47485 11.9569 3.01768 11.9569H3.03768C3.58051 11.9569 3.99538 11.4899 3.99538 10.9459V10.1599C3.88041 8.97289 4.84711 7.97388 6.00875 7.97388C6.06673 7.97388 6.12371 7.97888 6.18069 7.98388L6.95045 7.97388C7.40231 8.01188 7.81918 7.81488 7.96913 7.38688L8.18507 6.76987C8.7089 5.27085 10.0315 4.14684 11.61 4.00684C14.0542 3.78983 16.1656 5.85086 16.0026 8.28989L15.9996 8.49889V11.0609H16.0096C16.0386 11.5819 16.4955 11.9979 17.0223 11.9979H17.0423C17.5611 11.9979 17.957 11.5719 17.993 11.0609H18V8.49889H17.989L17.988 8.49989Z" fill="currentColor"/>
<path d="M12.2808 13.3059L10.9942 14.623V10.9899C10.9942 10.4429 10.5533 9.99991 10.0095 9.99991H9.9895C9.44567 9.99991 9.00481 10.4429 9.00481 10.9899V14.471L8.87585 14.45L7.7582 13.3359C7.40531 12.9849 6.84049 12.8989 6.43661 13.1899C5.92377 13.5589 5.88179 14.275 6.30965 14.701L9.33071 17.709C9.51765 17.895 9.77057 18 10.0355 18C10.3004 18 10.5533 17.895 10.7403 17.709L13.6913 14.709C14.0802 14.322 14.0802 13.6939 13.6913 13.3059C13.3025 12.9179 12.6707 12.9179 12.2818 13.3059H12.2808Z" fill="currentColor"/>
</svg>
