<svg width="20" height="20" viewBox="0 0 20 20" fill="none" xmlns="http://www.w3.org/2000/svg">
<path d="M17 3.5H3C2.448 3.5 2 3.98533 2 4.58333V15.4167C2 16.0147 2.448 16.5 3 16.5H17C17.552 16.5 18 16.0147 18 15.4167V4.58333C18 3.98533 17.552 3.5 17 3.5ZM15.618 5.66667L10 9.81692L4.382 5.66667H15.618ZM16 13.7917C16 14.0907 15.776 14.3333 15.5 14.3333H4.5C4.224 14.3333 4 14.0907 4 13.7917V7.98175L9.497 12.015C9.652 12.1157 9.826 12.1656 10 12.1656C10.174 12.1656 10.348 12.1157 10.503 12.015L16 7.98175V13.7917Z" fill="currentColor"/>
</svg>
