<svg width="20" height="20" viewBox="0 0 20 20" fill="none" xmlns="http://www.w3.org/2000/svg">
<path d="M10 3.5C7.09956 3.5 4.2 5.66636 2 10C4.2 14.3327 7.09956 16.5 10 16.5C12.9004 16.5 15.8 14.3336 18 10C15.8 5.66729 12.9004 3.5 10 3.5ZM10 14.6429C7.89067 14.6429 5.752 12.964 4.04178 10C5.752 7.036 7.89156 5.35714 10 5.35714C12.1084 5.35714 14.248 7.036 15.9582 10C14.248 12.964 12.1084 14.6429 10 14.6429Z" fill="currentColor"/>
<path d="M11.7778 10C11.7778 11.0261 10.9813 11.8571 10 11.8571C9.01867 11.8571 8.22222 11.0251 8.22222 10C8.22222 8.97486 9.01867 8.14286 10 8.14286C10.9813 8.14286 11.7778 8.97486 11.7778 10Z" fill="currentColor"/>
</svg>
