<svg width="20" height="20" viewBox="0 0 20 20" fill="none" xmlns="http://www.w3.org/2000/svg">
<path d="M15.3333 3.5H4.66667C4.29867 3.5 4 3.916 4 4.42857V15.5714C4 16.084 4.29867 16.5 4.66667 16.5H15.3333C15.7013 16.5 16 16.084 16 15.5714V4.42857C16 3.916 15.7013 3.5 15.3333 3.5ZM5.33333 5.35714H6.66667V7.21429H5.33333V5.35714ZM5.33333 9.07143H6.66667V10.9286H5.33333V9.07143ZM5.33333 14.6429V12.7857H6.66667V14.6429H5.33333ZM8 14.6429V5.35714H12V14.6429H8ZM14.6667 14.6429H13.3333V12.7857H14.6667V14.6429ZM14.6667 10.9286H13.3333V9.07143H14.6667V10.9286ZM14.6667 7.21429H13.3333V5.35714H14.6667V7.21429Z" fill="currentColor"/>
</svg>
