<svg width="20" height="20" viewBox="0 0 20 20" fill="none" xmlns="http://www.w3.org/2000/svg">
<path d="M13.5 5C14.878 5 16 6.346 16 8C16 11.154 12.182 13.713 10 14.8C7.816 13.711 4 11.153 4 8C4 6.346 5.122 5 6.5 5C7.143 5 7.847 5.44 8.383 6.177L9.192 7.063C9.591 7.612 10.41 7.612 10.809 7.063L11.618 6.177C12.154 5.44 12.858 5 13.501 5H13.5ZM13.5 3C12.085 3 10.825 3.866 10 5C9.175 3.866 7.915 3 6.5 3C4.015 3 2 5.239 2 8C2 13.719 10 17 10 17C10 17 18 13.719 18 8C18 5.239 15.985 3 13.5 3Z" fill="currentColor"/>
</svg>
