<svg width="20" height="20" viewBox="0 0 20 20" fill="none" xmlns="http://www.w3.org/2000/svg">
<path d="M17.6231 7.98838L10.6747 3.16012C10.5253 3.056 10.3458 3 10.1618 3H9.83733C9.65333 3 9.47467 3.056 9.32444 3.16012L2.376 7.98838C2.13956 8.152 2 8.41888 2 8.70325V16.125C2 16.608 2.39822 17 2.88889 17H17.1111C17.6018 17 18 16.608 18 16.125V8.70325C18 8.41888 17.8587 8.152 17.6231 7.98838ZM16.2213 14.8125C16.2213 15.054 16.0222 15.25 15.7769 15.25H9.11022V10.4375C9.11022 10.196 8.91111 10 8.66578 10H5.99911C5.75378 10 5.55467 10.196 5.55467 10.4375V15.25H4.22133C3.976 15.25 3.77689 15.054 3.77689 14.8125V9.38313C3.77689 9.2405 3.84711 9.1075 3.96444 9.02525L9.99911 4.83313L16.0329 9.02525C16.1511 9.1075 16.2213 9.2405 16.2213 9.38313V14.8125Z" fill="currentColor"/>
<path d="M13.9991 10H11.3324C11.0871 10 10.888 10.196 10.888 10.4375V11.3125C10.888 11.554 11.0871 11.75 11.3324 11.75H13.9991C14.2444 11.75 14.4436 11.554 14.4436 11.3125V10.4375C14.4436 10.196 14.2444 10 13.9991 10Z" fill="currentColor"/>
</svg>
