<svg width="20" height="20" viewBox="0 0 20 20" fill="none" xmlns="http://www.w3.org/2000/svg">
<path d="M17.1111 3H2.88889C2.39822 3 2 3.392 2 3.875V16.125C2 16.608 2.39822 17 2.88889 17H17.1111C17.6018 17 18 16.608 18 16.125V3.875C18 3.392 17.6018 3 17.1111 3ZM16.2222 14.8125C16.2222 15.054 16.0231 15.25 15.7778 15.25H8.57956L13.5591 10.3482L16.2222 12.9698V14.8125ZM16.2222 10.5302L14.2933 8.6315C14.2622 8.58687 14.2267 8.544 14.1867 8.50462C14.0124 8.33312 13.7822 8.24825 13.5538 8.25087C13.3262 8.24825 13.0978 8.33225 12.9236 8.50375C12.888 8.53875 12.856 8.57725 12.8276 8.61663L6.088 15.2509H4.22311C3.97778 15.2509 3.77867 15.0549 3.77867 14.8134V5.18837C3.77867 4.94687 3.97778 4.75087 4.22311 4.75087H15.7778C16.0231 4.75087 16.2222 4.94687 16.2222 5.18837V10.5311V10.5302Z" fill="currentColor"/>
<path d="M7.33333 6.5C6.35111 6.5 5.55556 7.28312 5.55556 8.25C5.55556 9.21688 6.35111 10 7.33333 10C8.31467 10 9.11111 9.21688 9.11111 8.25C9.11111 7.28312 8.31467 6.5 7.33333 6.5Z" fill="currentColor"/>
</svg>
