<svg width="20" height="20" viewBox="0 0 20 20" fill="none" xmlns="http://www.w3.org/2000/svg">
<path d="M10 2C5.582 2 2 5.582 2 10C2 14.418 5.582 18 10 18C14.418 18 18 14.418 18 10C18 5.582 14.418 2 10 2ZM10 16C6.691 16 4 13.309 4 10C4 6.691 6.691 4 10 4C13.309 4 16 6.691 16 10C16 13.309 13.309 16 10 16Z" fill="currentColor"/>
<path d="M13.01 9.002H9.377L10.694 7.709C11.082 7.317 11.082 6.684 10.694 6.292C10.306 5.9 9.678 5.901 9.291 6.292L6.291 9.259C6.105 9.447 6 9.701 6 9.968C6 9.979 6 9.991 6.001 10.002C6.002 10.013 6 10.025 6 10.036C6 10.302 6.105 10.557 6.291 10.745L9.291 13.712C9.679 14.103 10.307 14.103 10.694 13.712C11.081 13.321 11.082 12.687 10.694 12.295L9.377 11.001H13.01C13.557 11.001 14 10.558 14 10.011V9.993C14 9.446 13.557 9.003 13.01 9.003V9.002Z" fill="currentColor"/>
</svg>
