<svg width="20" height="20" viewBox="0 0 20 20" fill="none" xmlns="http://www.w3.org/2000/svg">
<path d="M9 7.829V13C9 13.552 9.448 14 10 14C10.552 14 11 13.552 11 13V7.829C12.165 7.417 13 6.306 13 5C13 3.343 11.657 2 10 2C8.343 2 7 3.343 7 5C7 6.306 7.835 7.417 9 7.829ZM17 8H15C14.448 8 14 8.448 14 9C14 9.552 14.448 10 15 10H15.5C15.776 10 16 10.224 16 10.5V15.5C16 15.776 15.776 16 15.5 16H4.5C4.224 16 4 15.776 4 15.5V10.5C4 10.224 4.224 10 4.5 10H5C5.552 10 6 9.552 6 9C6 8.448 5.552 8 5 8H3C2.448 8 2 8.448 2 9V17C2 17.552 2.448 18 3 18H17C17.552 18 18 17.552 18 17V9C18 8.448 17.552 8 17 8Z" fill="currentColor"/>
</svg>
