<svg width="20" height="20" viewBox="0 0 20 20" fill="none" xmlns="http://www.w3.org/2000/svg">
<path d="M10 2C6.134 2.005 3 5.12 3 8.963C3 14.488 8.02 17.27 9.509 17.916C9.638 17.972 9.776 18 9.913 18C9.942 18 9.971 17.994 10 17.991C10.029 17.993 10.058 18 10.087 18C10.224 18 10.362 17.972 10.491 17.916C11.98 17.271 17 14.488 17 8.963C17 5.12 13.867 2.005 10 2ZM10.088 15.895C10.062 15.881 10.029 15.864 10 15.85C9.971 15.865 9.938 15.882 9.912 15.895C8.629 15.247 5 13.052 5 8.963C5 6.229 7.242 4.005 10 4C12.758 4.005 15 6.229 15 8.963C15 13.052 11.371 15.247 10.088 15.895Z" fill="currentColor"/>
<path d="M10 7C8.895 7 8 7.896 8 9C8 10.104 8.896 11 10 11C11.104 11 12 10.104 12 9C12 7.895 11.104 7 10 7Z" fill="currentColor"/>
</svg>
