<svg width="20" height="20" viewBox="0 0 20 20" fill="none" xmlns="http://www.w3.org/2000/svg">
<path d="M4.12752 9.07355L7.96637 5.06227C8.30509 4.70849 8.30509 4.13373 7.96637 3.77903L7.95392 3.76603C7.6152 3.41132 7.06489 3.41132 6.72616 3.76603L2.35479 8.33258C2.32456 8.35672 2.29344 8.37993 2.26499 8.40965L2.25255 8.42265C2.08096 8.60185 1.99739 8.8377 2.00006 9.07262C1.99828 9.30754 2.08096 9.54339 2.25255 9.7226L2.26499 9.7356C2.29344 9.76438 2.32456 9.7876 2.35479 9.81267L6.72616 14.3792C7.06489 14.7339 7.6152 14.7339 7.95392 14.3792L7.96637 14.3662C8.30509 14.0124 8.30509 13.4377 7.96637 13.083L4.12752 9.07262V9.07355Z" fill="currentColor"/>
<path d="M13.5539 8.14501H9.46083L12.4106 5.06319C12.7494 4.70942 12.7494 4.13466 12.4106 3.77995L12.3982 3.76695C12.0595 3.41225 11.5092 3.41225 11.1704 3.76695L6.79907 8.33351C6.76884 8.35765 6.73772 8.38086 6.70927 8.41058L6.70483 8.41522C6.70483 8.41522 6.70305 8.41707 6.70216 8.41893L6.69683 8.42357C6.66749 8.45514 6.6426 8.49043 6.61859 8.52479C6.61148 8.535 6.6017 8.54428 6.59459 8.55543C6.49324 8.70956 6.44256 8.8897 6.44345 9.06984L6.44256 9.07355L6.44345 9.07727C6.44256 9.2574 6.49324 9.43661 6.59459 9.59168C6.6017 9.60189 6.61059 9.61118 6.6177 9.62232C6.6426 9.65667 6.6666 9.69196 6.69683 9.72353L6.70216 9.72817L6.70483 9.73096L6.71016 9.7356C6.73772 9.76438 6.76884 9.7876 6.79995 9.81267L11.1713 14.3792C11.5101 14.7339 12.0604 14.7339 12.3991 14.3792L12.4115 14.3662C12.7503 14.0124 12.7503 13.4377 12.4115 13.083L9.46172 10.0012H13.5548C15.0253 10.0012 16.2219 11.251 16.2219 12.7877V15.5715C16.2219 16.084 16.6193 16.5 17.111 16.5C17.6026 16.5 18 16.084 18 15.5715V12.7877C18 10.2231 16.0103 8.14408 13.5557 8.14408L13.5539 8.14501Z" fill="currentColor"/>
</svg>
