<svg width="20" height="20" viewBox="0 0 20 20" fill="none" xmlns="http://www.w3.org/2000/svg">
<path d="M12.4 4.5H7.6C4.5072 4.5 2 6.96243 2 10C2 13.0376 4.5072 15.5 7.6 15.5H12.4C15.4928 15.5 18 13.0376 18 10C18 6.96243 15.4928 4.5 12.4 4.5ZM12.4 13.9286H7.6C5.3944 13.9286 3.6 12.1662 3.6 10C3.6 7.83379 5.3944 6.07143 7.6 6.07143H12.4C14.6056 6.07143 16.4 7.83379 16.4 10C16.4 12.1662 14.6056 13.9286 12.4 13.9286Z" fill="currentColor"/>
<path d="M10 10C10 11.3019 8.9256 12.3571 7.6 12.3571C6.2744 12.3571 5.2 11.3019 5.2 10C5.2 8.69807 6.2744 7.64286 7.6 7.64286C8.9256 7.64286 10 8.69807 10 10Z" fill="currentColor"/>
</svg>
