<svg width="20" height="20" viewBox="0 0 20 20" fill="none" xmlns="http://www.w3.org/2000/svg">
<path d="M17 9H15.917C15.495 6.488 13.513 4.505 11 4.083V3C11 2.448 10.552 2 10 2C9.448 2 9 2.448 9 3V4.083C6.488 4.505 4.505 6.487 4.083 9H3C2.448 9 2 9.448 2 10C2 10.552 2.448 11 3 11H4.083C4.505 13.512 6.487 15.495 9 15.917V17C9 17.552 9.448 18 10 18C10.552 18 11 17.552 11 17V15.917C13.512 15.495 15.495 13.513 15.917 11H17C17.552 11 18 10.552 18 10C18 9.448 17.552 9 17 9ZM11 13.873V13C11 12.448 10.552 12 10 12C9.448 12 9 12.448 9 13V13.873C7.596 13.51 6.489 12.403 6.127 11H7C7.552 11 8 10.552 8 10C8 9.448 7.552 9 7 9H6.127C6.49 7.596 7.597 6.489 9 6.127V7C9 7.552 9.448 8 10 8C10.552 8 11 7.552 11 7V6.127C12.404 6.49 13.511 7.597 13.873 9H13C12.448 9 12 9.448 12 10C12 10.552 12.448 11 13 11H13.873C13.51 12.404 12.403 13.511 11 13.873Z" fill="currentColor"/>
</svg>
