<svg width="20" height="20" viewBox="0 0 20 20" fill="none" xmlns="http://www.w3.org/2000/svg">
<path d="M16 6C15.448 6 15 6.448 15 7V8.824C15 11.484 12.997 13.811 10.342 13.989C7.431 14.184 5 11.871 5 9V7C5 6.448 4.552 6 4 6C3.448 6 3 6.448 3 7V8.802C3 12.347 5.563 15.427 9 15.928V17C9 17.552 9.448 18 10 18C10.552 18 11 17.552 11 17V15.929C14.392 15.444 17 12.527 17 9V7C17 6.448 16.552 6 16 6Z" fill="currentColor"/>
<path d="M10 2C8.343 2 7 3.343 7 5V9C7 10.657 8.343 12 10 12C11.657 12 13 10.657 13 9V5C13 3.343 11.657 2 10 2ZM11 9C11 9.551 10.551 10 10 10C9.449 10 9 9.551 9 9V5C9 4.449 9.448 4 10 4C10.552 4 11 4.449 11 5V9Z" fill="currentColor"/>
</svg>
