<svg width="20" height="20" viewBox="0 0 20 20" fill="none" xmlns="http://www.w3.org/2000/svg">
<path d="M10.5217 7.38282C10.345 7.34904 10.1701 7.33304 10.0004 7.33304C8.35666 7.33304 7.061 8.81942 7.38336 10.5218C7.58139 11.5655 8.43481 12.4198 9.47827 12.6172C9.65499 12.651 9.82905 12.667 9.99956 12.667C11.6433 12.667 12.939 11.1806 12.6166 9.47816C12.4186 8.43449 11.5652 7.58018 10.5217 7.38282ZM10.6851 10.5663C10.5155 10.7716 10.2651 10.889 9.99956 10.889C9.93739 10.889 9.87256 10.8828 9.80863 10.8703C9.48271 10.809 9.19143 10.5165 9.12927 10.1911C9.06089 9.83198 9.19232 9.5804 9.31398 9.43371C9.4836 9.22836 9.73403 9.11101 9.99956 9.11101C10.0617 9.11101 10.1257 9.11723 10.1905 9.12968C10.5164 9.19102 10.8086 9.4835 10.8698 9.80887C10.9382 10.168 10.8068 10.4196 10.6851 10.5663Z" fill="currentColor"/>
<path d="M17.1146 10.889H15.3305C14.8412 10.889 14.4451 10.4925 14.4451 10.0036V9.99733C14.4451 9.50839 14.8412 9.1119 15.3305 9.1119H17.1146C17.6039 9.1119 18 9.50839 18 9.99733V10.0036C18 10.4925 17.6039 10.889 17.1146 10.889Z" fill="currentColor"/>
<path d="M10.004 14.4449H9.99778C9.50846 14.4449 9.11239 14.8414 9.11239 15.3304V17.1146C9.11239 17.6035 9.50846 18 9.99778 18H10.004C10.4933 18 10.8894 17.6035 10.8894 17.1146V15.3304C10.8894 14.8414 10.4933 14.4449 10.004 14.4449Z" fill="currentColor"/>
<path d="M9.99689 5.55506H10.0031C10.4924 5.55506 10.8885 5.15857 10.8885 4.66963V2.88543C10.8885 2.39649 10.4924 2 10.0031 2H9.99689C9.50758 2 9.11151 2.39649 9.11151 2.88543V4.66963C9.11151 5.15857 9.50758 5.55506 9.99689 5.55506Z" fill="currentColor"/>
<path d="M5.55664 10.0036V9.99733C5.55664 9.50839 5.15968 9.1119 4.67037 9.1119H2.88627C2.39696 9.1119 2 9.50839 2 9.99733V10.0036C2 10.4925 2.39696 10.889 2.88627 10.889H4.67037C5.15968 10.889 5.55664 10.4925 5.55664 10.0036Z" fill="currentColor"/>
<path d="M14.9851 6.19869L15.9779 5.20569C16.3047 4.87854 16.3047 4.34871 15.9779 4.02156C15.6511 3.69441 15.1209 3.69441 14.7941 4.02156L13.8013 5.01456C13.4745 5.3417 13.4745 5.87154 13.8013 6.19869C14.1281 6.52584 14.6583 6.52584 14.9851 6.19869Z" fill="currentColor"/>
<path d="M5.20764 4.02245C4.88083 3.6953 4.35067 3.6953 4.02387 4.02245C3.69706 4.34959 3.69706 4.87943 4.02387 5.20658L5.01671 6.19958C5.34351 6.52672 5.87279 6.52672 6.20048 6.19958C6.52817 5.87243 6.52728 5.34259 6.20048 5.01545L5.20764 4.02245Z" fill="currentColor"/>
<path d="M5.01671 13.8013L4.02387 14.7943C3.69706 15.1215 3.69706 15.6513 4.02387 15.9784C4.35067 16.3056 4.88083 16.3056 5.20764 15.9784L6.20048 14.9854C6.52728 14.6583 6.52728 14.1285 6.20048 13.8013C5.87367 13.4742 5.34351 13.4742 5.01671 13.8013Z" fill="currentColor"/>
<path d="M14.9851 13.8013C14.6583 13.4742 14.1281 13.4742 13.8013 13.8013C13.4745 14.1285 13.4745 14.6583 13.8013 14.9854L14.7941 15.9784C15.1209 16.3056 15.6502 16.3056 15.9779 15.9784C16.3056 15.6513 16.3047 15.1215 15.9779 14.7943L14.9851 13.8013Z" fill="currentColor"/>
</svg>
