<svg width="20" height="20" viewBox="0 0 20 20" fill="none" xmlns="http://www.w3.org/2000/svg">
<path d="M15.0097 11.9996H14.9897C14.4426 11.9996 13.9996 12.4427 13.9996 12.9897V15.4998C13.9996 15.7759 13.7755 15.9999 13.4995 15.9999H6.49974C6.22371 15.9999 5.99969 15.7759 5.99969 15.4998V12.9897C5.99969 12.4427 5.55664 11.9996 5.00958 11.9996H4.98958C4.44352 11.9996 3.99947 12.4427 3.99947 12.9897V17.0099C3.99947 17.557 4.44252 18 4.98958 18H15.0087C15.5557 18 15.9988 17.557 15.9988 17.0099V12.9897C15.9988 12.4427 15.5567 11.9996 15.0097 11.9996Z" fill="currentColor"/>
<path d="M17.0639 4.50116L15.4977 2.93506C14.8757 2.31302 14.0626 2.008 13.2485 2.008C13.1655 2.008 13.0825 2.011 12.9995 2.018V2H6.9998V2.018C6.91679 2.012 6.83378 2.008 6.75077 2.008C5.93668 2.008 5.12359 2.31402 4.50152 2.93506L2.93535 4.50116C1.68822 5.74823 1.68822 7.77136 2.93535 9.01844L2.98136 9.06344C3.60543 9.68748 4.42151 9.9995 5.2396 9.9995C6.05769 9.9995 6.87478 9.68748 7.49785 9.06344L7.66387 8.89843C8.20793 9.56947 9.03902 9.9995 9.97012 9.9995H10.0301C10.9622 9.9995 11.7923 9.56947 12.3364 8.89843L12.5024 9.06344C13.1265 9.68748 13.9436 9.9995 14.7606 9.9995C15.5777 9.9995 16.3948 9.68748 17.0189 9.06344L17.0639 9.01844C18.312 7.77036 18.312 5.74823 17.0639 4.50116ZM15.6497 7.60435L15.6037 7.65035C15.3777 7.87637 15.0787 8.00038 14.7596 8.00038C14.4406 8.00038 14.1406 7.87637 13.9146 7.65035L13.7495 7.48434L12.3364 6.07025C12.2534 5.98725 12.1164 5.99425 12.0423 6.08526L10.7822 7.63835C10.5962 7.86737 10.3222 7.99938 10.0291 7.99938H9.96912C9.67609 7.99938 9.40206 7.86837 9.21604 7.63835L7.9799 6.11526C7.89389 6.00825 7.73288 6.00025 7.63587 6.09726L6.0837 7.65035C5.85767 7.87637 5.55864 8.00038 5.2396 8.00038C4.92057 8.00038 4.62054 7.87637 4.39551 7.65035L4.34951 7.60435C3.88346 7.13832 3.88346 6.38227 4.34951 5.91624L5.91568 4.35015C6.21271 4.05313 6.56575 4.00913 6.74977 4.00913C6.78177 4.00913 6.96679 3.99812 6.9988 4.00113H12.9985C13.0305 3.99913 13.2155 4.00913 13.2475 4.00913C13.4325 4.00913 13.7855 4.05313 14.0826 4.35015L15.6487 5.91624C16.1148 6.38227 16.1148 7.13832 15.6487 7.60535L15.6497 7.60435Z" fill="currentColor"/>
</svg>
