<svg width="20" height="20" viewBox="0 0 20 20" fill="none" xmlns="http://www.w3.org/2000/svg">
<path d="M10 2C5.582 2 2 5.582 2 10C2 14.418 5.582 18 10 18C14.418 18 18 14.418 18 10C18 5.582 14.418 2 10 2ZM10 16C6.691 16 4 13.308 4 10C4 6.692 6.691 4 10 4C13.309 4 16 6.692 16 10C16 13.308 13.309 16 10 16Z" fill="currentColor"/>
<path d="M12.01 10H10.5C10.224 10 10 9.776 10 9.5V7.99C10 7.443 9.557 7 9.01 7H8.99C8.443 7 8 7.443 8 7.99V11.01C8 11.557 8.443 12 8.99 12H12.01C12.557 12 13 11.557 13 11.01V10.99C13 10.443 12.557 10 12.01 10Z" fill="currentColor"/>
</svg>
