<svg width="20" height="20" viewBox="0 0 20 20" fill="none" xmlns="http://www.w3.org/2000/svg">
<path d="M15.6 8H15.46C15.801 7.411 16 6.73 16 6C16 3.791 14.209 2 12 2C9.791 2 8 3.791 8 6C5.791 6 4 7.791 4 10C4 10.729 4.198 11.411 4.54 12H4.4C2.975 12.638 2 14.005 2 15.463V17C2 17.351 2.554 18 2.969 18H13.125C13.54 18 14 17.351 14 17V15.463C14 14.954 13.875 14.459 13.66 14H17.125C17.54 14 18 13.351 18 13V11.463C18 10.005 17.025 8.638 15.6 8ZM12 4C13.103 4 14 4.897 14 6C14 7.103 13.103 8 12 8C11.789 8 11.589 7.958 11.398 7.897C11.072 7.371 10.628 6.928 10.102 6.602C10.041 6.411 9.999 6.211 9.999 6C9.999 4.897 10.896 4 11.999 4H12ZM8 8C9.105 8 10 8.896 10 10C10 11.104 9.104 12 8 12C7.012 12 6.195 11.281 6.034 10.339C6.013 10.229 6 10.117 6 10C6 8.895 6.896 8 8 8ZM12 16H4V15.463C4 14.92 4.356 14.356 4.898 14H11.101C11.643 14.356 11.999 14.92 11.999 15.463V16H12ZM16 12H11.46C11.801 11.411 12 10.73 12 10H15.102C15.644 10.356 16 10.92 16 11.463V12Z" fill="currentColor"/>
</svg>
