<svg width="20" height="20" viewBox="0 0 20 20" fill="none" xmlns="http://www.w3.org/2000/svg">
<path d="M8.25789 4.25586C8.00643 5.08381 7.93529 5.96575 8.05952 6.8527C8.4262 9.48253 10.5191 11.5754 13.149 11.9414C13.4315 11.9814 13.718 12.0014 14.0005 12.0014C14.6007 12.0014 15.1868 11.9144 15.7458 11.7444C15.0705 13.9593 13.0989 15.6701 10.7635 15.9541C10.5091 15.9851 10.2526 16.0011 10.0001 16.0011C8.28394 16.0011 6.6449 15.2632 5.50579 13.9773C4.35164 12.6733 3.83368 10.9904 4.04608 9.23855C4.3306 6.90369 6.04178 4.93082 8.25789 4.25586ZM10.0001 2.001C9.63745 2.001 9.26777 2.025 8.89407 2.076C5.34449 2.55597 2.4942 5.43978 2.06139 8.99556C1.46829 13.8623 5.25131 18 10.0001 18C10.3307 18 10.6664 17.98 11.005 17.938C14.5606 17.505 17.4449 14.6552 17.9248 11.1054C17.9769 10.7225 18.001 10.3445 18 9.9715C17.998 9.38854 17.5171 8.99956 17.0021 8.99956C16.7927 8.99956 16.5773 9.06456 16.387 9.20655C15.7207 9.70452 14.8952 9.9995 13.9995 9.9995C13.8112 9.9995 13.6188 9.9865 13.4245 9.9595C11.6893 9.71752 10.2816 8.31061 10.0402 6.57471C9.88491 5.45978 10.1895 4.41885 10.7926 3.6119C11.2084 2.95494 10.8176 2.003 10.0272 2C10.0182 2 10.0091 2 9.99912 2L10.0001 2.001Z" fill="currentColor"/>
</svg>
