<svg width="20" height="20" viewBox="0 0 20 20" fill="none" xmlns="http://www.w3.org/2000/svg">
<path d="M10 2C5.582 2 2 5.582 2 10C2 14.418 5.582 18 10 18C14.418 18 18 14.418 18 10C18 5.582 14.418 2 10 2ZM10 16C6.691 16 4 13.309 4 10C4 6.691 6.691 4 10 4C13.309 4 16 6.691 16 10C16 13.309 13.309 16 10 16Z" fill="currentColor"/>
<path d="M13.01 9H11V6.99C11 6.443 10.557 6 10.01 6H9.99C9.443 6 9 6.443 9 6.99V9H6.99C6.443 9 6 9.443 6 9.99V10.01C6 10.557 6.443 11 6.99 11H9V13.01C9 13.557 9.443 14 9.99 14H10.01C10.557 14 11 13.557 11 13.01V11H13.01C13.557 11 14 10.557 14 10.01V9.99C14 9.443 13.557 9 13.01 9Z" fill="currentColor"/>
</svg>
