<svg width="20" height="20" viewBox="0 0 20 20" fill="none" xmlns="http://www.w3.org/2000/svg">
<path d="M17.7042 9.33965L11.7083 3.77229C11.3176 3.40924 10.683 3.40924 10.2923 3.77229C9.90157 4.13534 9.90157 4.72401 10.2923 5.08799L14.5823 9.07131H3.00031C2.44769 9.07131 2 9.48729 2 9.99983C2 10.5124 2.44769 10.9283 3.00031 10.9283H14.5823L10.2933 14.9117C9.90257 15.2747 9.90257 15.8634 10.2943 16.2274C10.686 16.5913 11.3196 16.5904 11.7103 16.2274L17.7062 10.6591C17.9021 10.4771 18 10.2385 18 9.99983C18 9.7612 17.9031 9.52257 17.7062 9.34058L17.7042 9.33965Z" fill="currentColor"/>
</svg>
