<svg width="20" height="20" viewBox="0 0 20 20" fill="none" xmlns="http://www.w3.org/2000/svg">
<path d="M18 10C18 5.582 14.418 2 10 2C5.582 2 2 5.582 2 10C2 14.418 5.582 18 10 18C14.418 18 18 14.418 18 10ZM4 10C4 6.691 6.691 4 10 4C13.309 4 16 6.691 16 10C16 13.309 13.309 16 10 16C6.691 16 4 13.309 4 10Z" fill="currentColor"/>
<path d="M10.998 13.01V9.377L12.291 10.694C12.683 11.082 13.316 11.082 13.708 10.694C14.1 10.306 14.099 9.678 13.708 9.291L10.741 6.291C10.553 6.105 10.299 6 10.032 6C10.021 6 10.009 6 9.998 6.001C9.987 6.002 9.975 6 9.964 6C9.698 6 9.443 6.105 9.255 6.291L6.288 9.291C5.897 9.679 5.897 10.307 6.288 10.694C6.679 11.081 7.313 11.082 7.705 10.694L8.999 9.377V13.01C8.999 13.557 9.442 14 9.989 14H10.007C10.554 14 10.997 13.557 10.997 13.01H10.998Z" fill="currentColor"/>
</svg>
