<svg width="20" height="20" viewBox="0 0 20 20" fill="none" xmlns="http://www.w3.org/2000/svg">
<path d="M9.01231 15.0054H8.18969C5.81589 14.6175 3.99951 12.553 3.99951 10.0725C3.99951 9.24166 4.21268 8.46383 4.57395 7.77398L5.18741 8.6238C5.63375 9.24166 6.59748 9.0697 6.80264 8.33486L7.96552 4.15675C8.12764 3.57688 7.69031 3.002 7.08785 3.003L2.91069 3.009C2.16913 3.01 1.7398 3.84982 2.17413 4.45169L3.30299 6.01535C2.48537 7.16011 2 8.55881 2 10.0735C2 13.5717 4.56794 16.4711 7.92249 16.989C8.01355 17.003 8.10262 16.999 8.18969 16.988V17H9.01231C9.55772 17 10.0001 16.5581 10.0001 16.0132V15.9932C10.0001 15.4483 9.55772 15.0064 9.01231 15.0064V15.0054Z" fill="currentColor"/>
<path d="M17.826 15.5503L16.6961 13.9866C17.5147 12.8419 17.9991 11.4432 17.9991 9.92852C17.9991 6.43027 15.4312 3.53089 12.0766 3.012C11.9856 2.998 11.8965 3.002 11.8094 3.013V3H10.9868C10.4414 3 10.0001 3.44191 10.0001 3.98679V4.00678C10.0001 4.55267 10.4424 4.99457 10.9868 4.99457H11.8094C14.1832 5.38249 15.9996 7.44705 15.9996 9.92752C15.9996 10.7583 15.7864 11.5362 15.4262 12.226L14.8117 11.3762C14.3654 10.7583 13.4016 10.9303 13.1975 11.6651L12.0336 15.8432C11.8725 16.4241 12.3088 16.998 12.9123 16.997L17.0894 16.991C17.832 16.99 18.2603 16.1492 17.826 15.5483V15.5503Z" fill="currentColor"/>
</svg>
