<svg width="20" height="20" viewBox="0 0 20 20" fill="none" xmlns="http://www.w3.org/2000/svg">
<path d="M17.1111 6.5H13.5556V3.875C13.5556 3.392 13.1573 3 12.6667 3H7.33333C6.84267 3 6.44444 3.392 6.44444 3.875V6.5H2.88889C2.39822 6.5 2 6.892 2 7.375V8.25H3.77778V16.125C3.77778 16.608 4.176 17 4.66667 17H15.3333C15.824 17 16.2222 16.608 16.2222 16.125V8.25H18V7.375C18 6.892 17.6018 6.5 17.1111 6.5ZM8.22222 4.75H11.7778V6.5H8.22222V4.75ZM14.4444 15.25H5.55556V8.25H14.4444V15.25Z" fill="currentColor"/>
<path d="M7.77778 13.5H8.66667C8.912 13.5 9.11111 13.304 9.11111 13.0625V10.4375C9.11111 10.196 8.912 10 8.66667 10H7.77778C7.53244 10 7.33333 10.196 7.33333 10.4375V13.0625C7.33333 13.304 7.53244 13.5 7.77778 13.5Z" fill="currentColor"/>
<path d="M11.3333 13.5H12.2222C12.4676 13.5 12.6667 13.304 12.6667 13.0625V10.4375C12.6667 10.196 12.4676 10 12.2222 10H11.3333C11.088 10 10.8889 10.196 10.8889 10.4375V13.0625C10.8889 13.304 11.088 13.5 11.3333 13.5Z" fill="currentColor"/>
</svg>
