<svg width="20" height="20" viewBox="0 0 20 20" fill="none" xmlns="http://www.w3.org/2000/svg">
<path d="M16 2H5C3.895 2 3 2.895 3 4V16C3 17.105 3.896 18 5 18H16C16.552 18 17 17.552 17 17V3C17 2.448 16.552 2 16 2ZM15 15.5C15 15.776 14.776 16 14.5 16H5.99C5.443 16 5 15.557 5 15.01V14.99C5 14.443 5.443 14 5.99 14H14.5C14.776 14 15 14.224 15 14.5V15.5ZM15 11.531C15 11.807 14.776 12.031 14.5 12.031H7.5C7.224 12.031 7 11.807 7 11.531V4.5C7 4.224 7.224 4 7.5 4H14.5C14.776 4 15 4.224 15 4.5V11.531Z" fill="currentColor"/>
<path d="M12.5 6H9.5C9.224 6 9 6.224 9 6.5V7.5C9 7.776 9.224 8 9.5 8H12.5C12.776 8 13 7.776 13 7.5V6.5C13 6.224 12.776 6 12.5 6Z" fill="currentColor"/>
</svg>
