<svg width="20" height="20" viewBox="0 0 20 20" fill="none" xmlns="http://www.w3.org/2000/svg">
<path d="M14.7158 8.654C14.8978 8.135 15.0008 7.581 15.0008 7C15.0008 4.239 12.7627 2 10.0005 2C7.23833 2 5.00019 4.239 5.00019 7C5.00019 7.581 5.10419 8.135 5.28621 8.654C3.33808 9.645 2 11.664 2 13.999V16.999C2 17.552 2.44803 18 3.00106 18H16.9989C17.552 18 18 17.552 18 16.999V13.999C18 11.663 16.6629 9.645 14.7138 8.654H14.7158ZM10.0015 4C11.6556 4 13.0017 5.346 13.0017 7C13.0017 8.654 11.6556 10 10.0015 10C8.3474 10 7.00131 8.654 7.00131 7C7.00131 5.346 8.3474 4 10.0015 4ZM16.0019 16H4.00113V13.999C4.00113 12.395 4.95318 11.012 6.31927 10.375C7.23333 11.372 8.54241 12 10.0015 12C11.4606 12 12.7697 11.372 13.6837 10.375C15.0498 11.011 16.0019 12.395 16.0019 13.999V16Z" fill="currentColor"/>
</svg>
