<svg width="20" height="20" viewBox="0 0 20 20" fill="none" xmlns="http://www.w3.org/2000/svg">
<path d="M12.284 7.71525L7.73431 7.71753C7.72745 7.71753 7.72058 7.71525 7.71258 7.71525H5.87852L9.67127 3.92203C10.1081 3.48546 10.1081 2.77916 9.67127 2.34258L9.65526 2.32658C9.21962 1.89114 8.51184 1.89114 8.07619 2.32658L2.45624 7.94725C2.41622 7.97696 2.3762 8.00554 2.34076 8.04211L2.33504 8.04782C2.3339 8.04897 2.33275 8.05011 2.33161 8.05239L2.32589 8.05811C2.28702 8.09697 2.25614 8.13925 2.22527 8.18268C2.21498 8.19525 2.2024 8.20668 2.1944 8.2204C2.06405 8.41126 1.99887 8.63183 2.00001 8.85355C2.00001 8.85584 2.00001 8.85698 2.00001 8.85927C2.00001 8.86155 2.00001 8.86269 2.00001 8.86384C1.99887 9.08555 2.06405 9.30613 2.1944 9.49699C2.20354 9.51071 2.21498 9.52099 2.22413 9.53471C2.25614 9.57699 2.28816 9.62042 2.32589 9.65928L2.33161 9.66499C2.33275 9.66614 2.3339 9.66728 2.33504 9.66842L2.34076 9.67414C2.3762 9.71071 2.41622 9.73928 2.45624 9.769L8.07619 15.3897C8.51184 15.8251 9.21962 15.8251 9.65526 15.3897L9.67127 15.3737C10.1081 14.9382 10.1081 14.2308 9.67127 13.7942L5.87852 10.001H7.71258C7.72058 10.001 7.72745 9.99871 7.73431 9.99871V10.001H12.284C14.1752 10.001 15.7131 11.5393 15.7131 13.4308V16.8571C15.7131 17.4891 16.2254 18 16.8566 18C17.4877 18 18 17.488 18 16.8571V13.4308C18 10.2741 15.441 7.71525 12.284 7.71525Z" fill="currentColor"/>
</svg>
