<svg width="20" height="20" viewBox="0 0 20 20" fill="none" xmlns="http://www.w3.org/2000/svg">
<path d="M10 2C5.582 2 2 5.582 2 10C2 14.418 5.582 18 10 18C14.418 18 18 14.418 18 10C18 5.582 14.418 2 10 2ZM10 4C11.294 4 12.49 4.416 13.471 5.115L12.029 6.557C11.434 6.205 10.741 6 10 6C9.259 6 8.566 6.206 7.971 6.557L6.529 5.115C7.509 4.416 8.706 4 10 4ZM12 10C12 10.106 11.987 10.208 11.969 10.309C11.836 11.164 11.164 11.836 10.309 11.969C10.208 11.987 10.106 12 10 12C9.894 12 9.792 11.987 9.691 11.969C8.836 11.836 8.164 11.164 8.031 10.309C8.012 10.208 8 10.106 8 10C8 9.894 8.013 9.792 8.031 9.691C8.164 8.836 8.836 8.164 9.691 8.031C9.792 8.013 9.894 8 10 8C10.106 8 10.208 8.013 10.309 8.031C11.164 8.164 11.836 8.836 11.969 9.691C11.988 9.792 12 9.894 12 10ZM4 10C4 8.706 4.416 7.51 5.115 6.529L6.557 7.971C6.205 8.566 6 9.258 6 10C6 10.742 6.205 11.434 6.557 12.029L5.115 13.471C4.416 12.49 4 11.294 4 10ZM10 16C8.706 16 7.51 15.584 6.529 14.885L7.971 13.443C8.566 13.795 9.259 14 10 14C10.741 14 11.434 13.794 12.029 13.443L13.471 14.885C12.491 15.584 11.294 16 10 16ZM14.885 13.471L13.443 12.029C13.795 11.434 14 10.742 14 10C14 9.258 13.795 8.566 13.443 7.971L14.885 6.529C15.584 7.51 16 8.706 16 10C16 11.294 15.584 12.49 14.885 13.471Z" fill="currentColor"/>
</svg>
