<svg width="20" height="20" viewBox="0 0 20 20" fill="none" xmlns="http://www.w3.org/2000/svg">
<path d="M17.7002 9.51L10.5132 2.302C10.3211 2.109 10.0588 2 9.78654 2H3.02699C2.46045 2 2 2.459 2 3.027V9.779C2 10.051 2.1081 10.313 2.30129 10.505L9.50327 17.7C9.70346 17.9 9.96672 18 10.229 18C10.4912 18 10.7545 17.9 10.9547 17.7L17.6992 10.961C18.0996 10.561 18.1006 9.911 17.7002 9.51ZM15.2438 10.587L10.5813 15.245C10.3861 15.44 10.0698 15.44 9.87463 15.245L3.99994 9.376V4.501C3.99994 4.225 4.22415 4.001 4.49942 4.001H9.38115L15.2428 9.881C15.438 10.076 15.437 10.393 15.2428 10.588L15.2438 10.587Z" fill="currentColor"/>
<path d="M9.00078 7.5C9.00078 8.328 8.32913 9 7.50033 9C6.67153 9 5.99988 8.328 5.99988 7.5C5.99988 6.672 6.67153 6 7.50033 6C8.32913 6 9.00078 6.672 9.00078 7.5Z" fill="currentColor"/>
</svg>
