<svg width="20" height="20" viewBox="0 0 20 20" fill="none" xmlns="http://www.w3.org/2000/svg">
<path d="M15 2H5C4.448 2 4 2.448 4 3V16.999C4 17.587 4.483 18 5.003 18C5.189 18 5.38 17.947 5.555 17.831L9.674 14.282C9.862 14.12 10.139 14.12 10.326 14.282L14.445 17.831C14.62 17.948 14.811 18 14.997 18C15.517 18 16 17.586 16 16.999V3C16 2.448 15.552 2 15 2ZM14 14.807L10.326 11.641C10.138 11.479 9.861 11.479 9.674 11.641L6 14.807V4.5C6 4.224 6.224 4 6.5 4H13.5C13.776 4 14 4.224 14 4.5V14.807Z" fill="currentColor"/>
</svg>
