<svg width="20" height="20" viewBox="0 0 20 20" fill="none" xmlns="http://www.w3.org/2000/svg">
<path d="M11.2498 3C11.1384 3 11.024 3.032 10.9145 3.101L6.85079 5.911C6.76747 5.969 6.66808 6 6.56669 6H2.99987C2.44773 6 2 6.448 2 7V13C2 13.552 2.44773 14 2.99987 14H6.56669C6.66909 14 6.76747 14.031 6.85079 14.089L10.9145 16.899C11.024 16.968 11.1384 17 11.2498 17C11.6434 17 11.9997 16.6 11.9997 16.051V3.95C11.9997 3.4 11.6434 3 11.2498 3ZM9.99999 13.834L7.60371 12.177C7.43706 12.062 7.23829 11.999 7.03551 11.999H4.50069C4.22462 11.999 4.00075 11.775 4.00075 11.499V8.499C4.00075 8.223 4.22462 7.999 4.50069 7.999H7.03551C7.23829 7.999 7.43706 7.937 7.60371 7.821L9.99999 6.164V13.834Z" fill="currentColor"/>
<path d="M17.996 9.799C17.9096 8.051 16.4761 6.808 15.4792 6.15C15.0074 5.838 14.381 6.028 14.1491 6.558L14.1109 6.644C13.9222 7.075 14.0657 7.583 14.4482 7.838C15.157 8.311 16.0404 9.085 16.0785 9.903C16.1107 10.579 15.5234 11.371 14.4091 12.173C14.0095 12.461 13.878 13.012 14.123 13.448L14.1651 13.523C14.4322 13.998 15.0345 14.147 15.4702 13.835C17.217 12.584 18.0662 11.23 17.996 9.799Z" fill="currentColor"/>
</svg>
