<svg width="20" height="20" viewBox="0 0 20 20" fill="none" xmlns="http://www.w3.org/2000/svg">
<path d="M17.988 7.77767C17.972 7.44345 17.938 7.10122 17.898 6.75188C17.6191 4.32964 15.4465 2.34295 12.734 2.0425C9.80754 1.71805 7.24202 3.28607 6.34818 5.55543C6.23621 5.54654 6.12323 5.54031 6.00825 5.54031C3.81366 5.54031 2 7.13233 2 9.08702V9.97236C2 10.4559 2.47491 10.8506 3.01781 10.8506H3.03781C3.5807 10.8506 3.99563 10.4355 3.99563 9.95192V9.25413C3.88065 8.19901 4.84747 7.311 6.00825 7.311C6.06624 7.311 6.12323 7.31544 6.18022 7.31989L6.95007 7.311C7.40199 7.34478 7.81891 7.16966 7.96888 6.78922L8.18484 6.24077C8.70874 4.9092 10.0315 3.90919 11.6102 3.78474C14.0547 3.59185 16.1663 5.42387 16.0024 7.59189L15.9994 7.77856V10.0559H16.0094C16.0384 10.519 16.4953 10.8897 17.0222 10.8897H17.0422C17.5611 10.8897 17.957 10.511 17.993 10.0559H18V7.77856H17.989L17.988 7.77767Z" fill="currentColor"/>
<path d="M7.99988 9.11102C7.44798 9.11102 7.00006 9.50924 7.00006 9.99992V11.7777C7.00006 12.2684 7.44798 12.6666 7.99988 12.6666C8.55177 12.6666 8.99969 12.2684 8.99969 11.7777V9.99992C8.99969 9.50924 8.55177 9.11102 7.99988 9.11102Z" fill="currentColor"/>
<path d="M7.99988 14.4444C7.44798 14.4444 7.00006 14.8417 7.00006 15.3333V17.1111C7.00006 17.6018 7.44798 18 7.99988 18C8.55177 18 8.99969 17.6018 8.99969 17.1111V15.3333C8.99969 14.8417 8.55177 14.4444 7.99988 14.4444Z" fill="currentColor"/>
<path d="M11.9991 7.33322C11.4472 7.33322 10.9993 7.73145 10.9993 8.22212V9.99992C10.9993 10.4915 11.4472 10.8888 11.9991 10.8888C12.551 10.8888 12.9989 10.4915 12.9989 9.99992V8.22212C12.9989 7.73145 12.551 7.33322 11.9991 7.33322Z" fill="currentColor"/>
<path d="M11.9991 12.6666C11.4472 12.6666 10.9993 13.0648 10.9993 13.5555V15.3333C10.9993 15.824 11.4472 16.2222 11.9991 16.2222C12.551 16.2222 12.9989 15.824 12.9989 15.3333V13.5555C12.9989 13.0648 12.551 12.6666 11.9991 12.6666Z" fill="currentColor"/>
</svg>
