<svg width="20" height="20" viewBox="0 0 20 20" fill="none" xmlns="http://www.w3.org/2000/svg">
<path d="M17.1111 4.75H13.5556V3.875C13.5556 3.392 13.1573 3 12.6667 3H7.33333C6.84267 3 6.44444 3.392 6.44444 3.875V4.75H2.88889C2.39822 4.75 2 5.142 2 5.625V12.625C2 13.108 2.39822 13.5 2.88889 13.5H4.66667V16.125C4.66667 16.608 5.06489 17 5.55556 17H14.4444C14.9351 17 15.3333 16.608 15.3333 16.125V13.5H17.1111C17.6018 13.5 18 13.108 18 12.625V5.625C18 5.142 17.6018 4.75 17.1111 4.75ZM13.5556 15.25H6.44444V11.75H13.5556V15.25ZM16.2222 11.3125C16.2222 11.554 16.0231 11.75 15.7778 11.75H15.3333V10.875C15.3333 10.392 14.9351 10 14.4444 10H5.55556C5.06489 10 4.66667 10.392 4.66667 10.875V11.75H4.22222C3.97689 11.75 3.77778 11.554 3.77778 11.3125V6.9375C3.77778 6.696 3.97689 6.5 4.22222 6.5H15.7778C16.0231 6.5 16.2222 6.696 16.2222 6.9375V11.3125Z" fill="currentColor"/>
</svg>
