<svg width="20" height="20" viewBox="0 0 20 20" fill="none" xmlns="http://www.w3.org/2000/svg">
<path d="M8.00022 4C10.2058 4 12 5.794 12 8C12 8.831 11.7436 9.63 11.2588 10.312L10.8646 10.865L10.3114 11.258C9.62951 11.743 8.82995 12 8.00022 12C5.79464 12 4.00041 10.206 4.00041 8C4.00041 5.794 5.79464 4 8.00022 4ZM8.00022 2C4.68632 2 2 4.686 2 8C2 11.314 4.68632 14 8.00022 14C9.29561 14 10.4914 13.586 11.471 12.888L16.2895 17.707C16.4856 17.903 16.7421 18 16.9985 18C17.255 18 17.5115 17.902 17.7066 17.707C18.0978 17.316 18.0978 16.682 17.7066 16.291L12.8881 11.472C13.5861 10.492 13.9994 9.295 13.9994 8.001C13.9994 4.687 11.3131 2.001 8.00022 2.001V2Z" fill="currentColor"/>
</svg>
