<svg width="20" height="20" viewBox="0 0 20 20" fill="none" xmlns="http://www.w3.org/2000/svg">
<path d="M17.1111 3.5C16.6204 3.5 16.2222 3.916 16.2222 4.42857V8.43814L8.22222 3.5C7.73156 3.5 7.33333 3.916 7.33333 4.42857V6.243L2.88889 3.5C2.39822 3.5 2 3.916 2 4.42857V15.5714C2 16.084 2.39822 16.5 2.88889 16.5L7.33333 13.7561V15.5714C7.33333 16.084 7.73156 16.5 8.22222 16.5L16.2222 11.5619V15.5714C16.2222 16.084 16.6204 16.5 17.1111 16.5C17.6018 16.5 18 16.084 18 15.5714V4.42857C18 3.916 17.6018 3.5 17.1111 3.5ZM7.33333 11.599L3.77778 13.7941V6.20586L7.33333 8.401V11.599ZM9.11111 13.7941V6.20586L15.2578 10L9.11111 13.7941Z" fill="currentColor"/>
</svg>
