<svg width="20" height="20" viewBox="0 0 20 20" fill="none" xmlns="http://www.w3.org/2000/svg">
<path d="M13.5543 5.35714L12.0371 3.77207C11.87 3.5975 11.6443 3.5 11.4087 3.5H8.58949C8.35396 3.5 8.12732 3.5975 7.96111 3.77207L6.44395 5.35714H2.88879C2.39818 5.35714 2 5.77314 2 6.28571V15.5714C2 16.084 2.39818 16.5 2.88879 16.5H4.66637C5.15698 16.5 5.55516 16.084 5.55516 15.5714C5.55516 15.0589 5.15698 14.6429 4.66637 14.6429H4.22198C3.97667 14.6429 3.77758 14.4349 3.77758 14.1786V7.67857C3.77758 7.42229 3.97667 7.21429 4.22198 7.21429H7.18076L8.95834 5.35714H11.0408L12.8184 7.21429H15.7771C16.0224 7.21429 16.2215 7.42229 16.2215 7.67857V14.1786C16.2215 14.4349 16.0224 14.6429 15.7771 14.6429H15.3327C14.8421 14.6429 14.444 15.0589 14.444 15.5714C14.444 16.0794 14.8341 16.4907 15.3194 16.4991V16.5H17.1112C17.6018 16.5 18 16.084 18 15.5714V6.28571C18 5.77314 17.6018 5.35714 17.1112 5.35714H13.5543Z" fill="currentColor"/>
<path d="M9.99911 10C10.9794 10 11.7767 10.8329 11.7767 11.8571C11.7767 12.8814 10.9794 13.7143 9.99911 13.7143C9.01878 13.7143 8.22153 12.8814 8.22153 11.8571C8.22153 10.8329 9.01878 10 9.99911 10ZM9.99911 8.14286C8.03577 8.14286 6.44395 9.80593 6.44395 11.8571C6.44395 13.9084 8.03577 15.5714 9.99911 15.5714C11.9624 15.5714 13.5543 13.9084 13.5543 11.8571C13.5543 9.80593 11.9624 8.14286 9.99911 8.14286Z" fill="currentColor"/>
</svg>
