<svg width="20" height="20" viewBox="0 0 20 20" fill="none" xmlns="http://www.w3.org/2000/svg">
<path d="M17.1111 3H8.22222C7.73156 3 7.33333 3.392 7.33333 3.875V6.5H2.88889C2.39822 6.5 2 6.892 2 7.375V16.125C2 16.608 2.39822 17 2.88889 17H11.7778C12.2684 17 12.6667 16.608 12.6667 16.125V13.5H17.1111C17.6018 13.5 18 13.108 18 12.625V3.875C18 3.392 17.6018 3 17.1111 3ZM10.8889 14.8125C10.8889 15.054 10.6898 15.25 10.4444 15.25H4.22222C3.97689 15.25 3.77778 15.054 3.77778 14.8125V8.6875C3.77778 8.446 3.97689 8.25 4.22222 8.25H10.4444C10.6898 8.25 10.8889 8.446 10.8889 8.6875V14.8125ZM16.2222 11.3125C16.2222 11.554 16.0231 11.75 15.7778 11.75H12.6667V7.375C12.6667 6.892 12.2684 6.5 11.7778 6.5H9.11111V5.1875C9.11111 4.946 9.31022 4.75 9.55556 4.75H15.7778C16.0231 4.75 16.2222 4.946 16.2222 5.1875V11.3125Z" fill="currentColor"/>
</svg>
