<svg width="20" height="20" viewBox="0 0 20 20" fill="none" xmlns="http://www.w3.org/2000/svg">
<path d="M10.0155 4C12.7637 4 14.9999 6.243 14.9999 9C14.9999 11.757 12.7637 14 10.0295 14L9.9695 13.996C9.91449 13.992 9.85949 13.989 9.80449 13.986L9.46846 13.972L5.8032 15.07L6.43225 12.587L5.91521 11.84C5.33517 11.001 5.02915 10.018 5.02915 8.998C5.02915 6.241 7.2653 3.998 10.0135 3.998L10.0155 4ZM10.0155 2C6.15823 2 3.031 5.134 3.031 9C3.031 10.479 3.49104 11.848 4.27209 12.978L3 18L9.72248 15.985C9.82049 15.989 9.91649 16 10.0155 16C13.8728 16 17 12.866 17 9C17 5.134 13.8728 2 10.0155 2Z" fill="currentColor"/>
</svg>
