<svg width="20" height="20" viewBox="0 0 20 20" fill="none" xmlns="http://www.w3.org/2000/svg">
<path d="M12.5 12H11V8.5C11 8.224 10.776 8 10.5 8H7.5C7.224 8 7 8.224 7 8.5V9.5C7 9.776 7.224 10 7.5 10H9V12H7.5C7.224 12 7 12.224 7 12.5V13.5C7 13.776 7.224 14 7.5 14H12.5C12.776 14 13 13.776 13 13.5V12.5C13 12.224 12.776 12 12.5 12ZM17 2H3C2.448 2 2 2.448 2 3V17C2 17.552 2.448 18 3 18H17C17.552 18 18 17.552 18 17V3C18 2.448 17.552 2 17 2ZM16 15.5C16 15.776 15.776 16 15.5 16H4.5C4.224 16 4 15.776 4 15.5V6.5C4 6.224 4.224 6 4.5 6H15.5C15.776 6 16 6.224 16 6.5V15.5Z" fill="currentColor"/>
</svg>
