<svg width="20" height="20" viewBox="0 0 20 20" fill="none" xmlns="http://www.w3.org/2000/svg">
<path d="M10 2C5.582 2 2 5.582 2 10C2 14.418 5.582 18 10 18C14.418 18 18 14.418 18 10C18 5.582 14.418 2 10 2ZM10 16C6.691 16 4 13.309 4 10C4 6.691 6.691 4 10 4C13.309 4 16 6.691 16 10C16 13.309 13.309 16 10 16Z" fill="currentColor"/>
<path d="M12.722 7.292L12.708 7.278C12.337 6.907 11.735 6.907 11.364 7.278L10 8.642L8.636 7.278C8.265 6.907 7.663 6.907 7.292 7.278L7.278 7.292C6.907 7.663 6.907 8.265 7.278 8.636L8.642 10L7.278 11.364C6.907 11.735 6.907 12.337 7.278 12.708L7.292 12.722C7.663 13.093 8.265 13.093 8.636 12.722L10 11.358L11.364 12.722C11.735 13.093 12.337 13.093 12.708 12.722L12.722 12.708C13.093 12.337 13.093 11.735 12.722 11.364L11.358 10L12.722 8.636C13.093 8.265 13.093 7.663 12.722 7.292Z" fill="currentColor"/>
</svg>
