<svg width="20" height="20" viewBox="0 0 20 20" fill="none" xmlns="http://www.w3.org/2000/svg">
<path d="M17.989 8.49989C17.973 8.12388 17.939 7.73888 17.899 7.34588C17.6201 4.62084 15.4468 2.38582 12.7346 2.04781C9.80856 1.68281 7.24236 3.44683 6.34864 5.99986C6.23668 5.98986 6.12371 5.98286 6.00875 5.98286C3.81443 5.98286 2 7.77388 2 9.97291V10.9689C2 11.5139 2.47485 11.9569 3.01768 11.9569H3.03768C3.58051 11.9569 3.99538 11.4899 3.99538 10.9459V10.1599C3.88041 8.97289 4.84711 7.97388 6.00875 7.97388C6.06673 7.97388 6.12371 7.97888 6.18069 7.98388L6.95045 7.97388C7.40231 8.01288 7.81918 7.81488 7.96913 7.38688L8.18507 6.76987C8.7089 5.27085 10.0315 4.14684 11.61 4.00684C14.0542 3.78983 16.1656 5.85086 16.0026 8.28989L15.9996 8.49989V11.0629H16.0096C16.0386 11.5839 16.4955 11.9999 17.0223 11.9999H17.0423C17.5611 11.9999 17.957 11.5739 17.993 11.0629H18V8.49989H17.989Z" fill="currentColor"/>
<path d="M13.6903 13.2989L10.6693 10.2909C10.4823 10.1049 10.2294 9.99991 9.96451 9.99991C9.69959 9.99991 9.44667 10.1049 9.25973 10.2909L6.30865 13.2909C5.91978 13.678 5.91978 14.306 6.30865 14.694C6.69753 15.082 7.32833 15.082 7.71721 14.694L9.00381 13.3769V17.01C9.00381 17.557 9.44467 18 9.9885 18H10.0085C10.5523 18 10.9932 17.557 10.9932 17.01V13.5289L11.1221 13.5499L12.2398 14.664C12.5927 15.015 13.1575 15.101 13.5614 14.81C14.0742 14.441 14.1162 13.725 13.6883 13.2989H13.6903Z" fill="currentColor"/>
</svg>
