<svg width="20" height="20" viewBox="0 0 20 20" fill="none" xmlns="http://www.w3.org/2000/svg">
<path d="M17.112 5.8325C17.0089 5.8325 16.9031 5.85083 16.7991 5.89167L12.6667 7.48583V5.83333C12.6667 5.37333 12.2684 5 11.7778 5H2.88889C2.39822 5 2 5.37333 2 5.83333V14.1667C2 14.6267 2.39822 15 2.88889 15H11.7778C12.2684 15 12.6667 14.6267 12.6667 14.1667V12.5142L16.7991 14.1083C16.9031 14.1483 17.0089 14.1675 17.112 14.1675C17.5831 14.1675 18 13.7758 18 13.2525V6.74917C18 6.22583 17.5831 5.83417 17.112 5.83417V5.8325ZM10.8889 12.9158C10.8889 13.1458 10.6898 13.3325 10.4444 13.3325H4.22222C3.97689 13.3325 3.77778 13.1458 3.77778 12.9158V7.0825C3.77778 6.8525 3.97689 6.66583 4.22222 6.66583H10.4444C10.6898 6.66583 10.8889 6.8525 10.8889 7.0825V12.9158ZM16.2222 12.0825L12.6667 10.7108V9.2875L16.2222 7.91583V12.0817V12.0825Z" fill="currentColor"/>
</svg>
