<svg width="20" height="20" viewBox="0 0 20 20" fill="none" xmlns="http://www.w3.org/2000/svg">
<path d="M16.9987 12C16.4458 12 15.9989 12.448 15.9989 13V15.5C15.9989 15.776 15.775 16 15.499 16H4.49945C4.22351 16 3.99956 15.776 3.99956 15.5V4.5C3.99956 4.224 4.22351 4 4.49945 4H6.99891C7.55179 4 7.99869 3.552 7.99869 3C7.99869 2.448 7.55079 2 6.99891 2H2.99978C2.4469 2 2 2.448 2 3V17C2 17.552 2.4479 18 2.99978 18H16.9987C17.5516 18 17.9985 17.552 17.9985 17V13C17.9985 12.448 17.5516 12 16.9987 12Z" fill="currentColor"/>
<path d="M14.1673 4.403L15.596 5.832L9.64933 12H7.99969V10.35L14.1673 4.403ZM14.1803 2C13.9244 2 13.6694 2.097 13.4745 2.292L6.00012 9.5V14H10.5001L17.7076 6.525C18.0975 6.135 18.0975 5.504 17.7076 5.114L14.8862 2.292C14.6922 2.097 14.4353 2 14.1803 2Z" fill="currentColor"/>
</svg>
